<svg width="512" height="512" viewBox="0 0 512 512" fill="none" xmlns="http://www.w3.org/2000/svg">
<g clip-path="url(#clip0_24_2800)">
<path d="M0 0H512V512H0V0Z" fill="#4997D0"/>
<path d="M170.7 0H341.3V512H170.7V0Z" fill="white"/>
<path d="M236.318 311.781C238.225 311.493 239.285 310.918 240.556 310.486M242.181 307.536C243.119 308.494 243.842 309.648 244.299 310.918M238.578 307.249C239.476 308.102 240.196 309.129 240.697 310.27M205.735 211.997C205.029 213.149 203.617 213.94 202.345 214.444M202.133 214.3C202.039 213.244 202.039 212.189 202.133 211.134M200.791 214.731C200.791 215.019 201.074 215.738 201.215 216.17M202.698 216.89L201.286 217.105M198.461 216.458C198.461 218.328 198.672 220.487 198.814 222.141M197.542 221.422C197.872 222.045 198.249 222.501 198.672 222.789M195.423 227.465C195.8 228.041 196.106 229 196.342 230.343M198.955 226.961L197.542 228.041M198.743 231.206C198.037 231.829 197.213 232.333 196.271 232.717M193.587 261.781C194.304 263.085 195.264 264.233 196.412 265.163M196.836 266.386C196.09 266.292 195.369 266.047 194.717 265.666M197.825 271.781L199.026 272.501M198.743 274.947C199.591 275.618 200.462 276.553 201.356 277.752M200.368 279.767C201.356 280.007 202.11 280.246 202.628 280.486M201.921 282.285H203.334M204.252 278.472L203.899 281.493M204.605 282.645L204.888 281.493M208.207 285.81L208.137 288.112M235.824 308.184L234.976 309.335M233.281 306.529L232.787 305.234" stroke="#24420E" stroke-width="0.285132"/>
<path d="M260.332 317.177C259.742 316.326 258.937 315.655 258.002 315.234C252.563 312.357 247.125 310.99 241.05 309.982C239.567 309.767 238.155 308.4 236.671 307.68C233.14 306.026 229.255 305.378 225.865 303.58C225.653 303.508 224.806 303.004 224.452 302.501C223.04 300.918 220.568 300.414 219.085 298.903C213.152 293.292 206.936 288.112 203.687 280.558C199.732 271.422 194.858 261.997 195.494 251.638C195.918 245.019 195 238.4 196.554 232.213C198.955 222.861 201.921 213.724 207.431 206.026L206.512 206.602C201.285 214.521 197.593 223.385 195.635 232.717C194.011 238.976 194.929 245.666 194.576 252.141C193.87 262.573 198.814 271.997 202.698 281.134C205.947 288.616 212.233 293.867 218.096 299.551C219.65 300.99 222.051 301.493 223.464 303.148L224.876 304.227C228.337 305.954 232.222 306.601 235.753 308.328C237.166 309.047 238.578 310.342 239.991 310.63C245.929 311.387 251.705 313.137 257.083 315.81C258.019 316.231 258.824 316.902 259.414 317.752L260.332 317.105" fill="#406325"/>
<path d="M260.332 317.177C259.742 316.326 258.937 315.655 258.002 315.234C252.563 312.357 247.125 310.99 241.05 309.982C239.567 309.767 238.155 308.4 236.671 307.68C233.14 306.026 229.255 305.378 225.865 303.58C225.653 303.508 224.806 303.004 224.452 302.501C223.04 300.918 220.568 300.414 219.085 298.903C213.152 293.292 206.936 288.112 203.687 280.558C199.732 271.422 194.858 261.997 195.494 251.638C195.918 245.019 195 238.4 196.554 232.213C198.955 222.861 201.921 213.724 207.431 206.026L206.512 206.602C201.285 214.521 197.593 223.385 195.635 232.717C194.011 238.976 194.929 245.666 194.576 252.141C193.87 262.573 198.814 271.997 202.698 281.134C205.947 288.616 212.233 293.867 218.096 299.551C219.65 300.99 222.051 301.493 223.464 303.148L224.876 304.227C228.337 305.954 232.222 306.601 235.753 308.328C237.166 309.047 238.578 310.342 239.991 310.63C245.929 311.387 251.705 313.137 257.083 315.81C258.019 316.231 258.824 316.902 259.414 317.752L260.332 317.105" stroke="#24420E" stroke-width="0.142566"/>
<path d="M203.97 278.76C202.518 273.227 202.469 267.41 203.828 261.853C208.561 271.206 207.007 278.904 203.97 278.76ZM236.389 311.421C230.63 312.766 225.305 315.589 220.921 319.623C231.586 319.695 237.872 314.371 236.389 311.421ZM241.686 308.328C236.86 302.927 233.458 296.368 231.798 289.263C242.392 297.105 245.147 306.745 241.686 308.328Z" fill="#67923D" stroke="#24420E" stroke-width="0.142566"/>
<path d="M238.084 308.4C232.998 304.01 229.106 298.362 226.783 291.997C237.59 297.896 241.121 306.529 238.084 308.4ZM227.066 303.508C227.772 297.896 223.11 286.098 221.768 284.803C219.65 296.673 223.887 304.659 227.066 303.508ZM207.784 286.026C206.643 281.041 206.765 275.842 208.137 270.918C212.022 279.335 210.468 286.17 207.784 286.026ZM198.107 230.774C201.974 225.678 207.089 221.708 212.94 219.264C208.137 229.767 200.226 233.58 198.107 230.774Z" fill="#67923D" stroke="#24420E" stroke-width="0.142566"/>
<path d="M198.602 226.746C201.409 220.949 205.643 215.991 210.891 212.357C208.278 223.652 201.215 229.048 198.602 226.746ZM218.308 298.112C215.044 292.325 213.27 285.792 213.152 279.119C221.062 288.112 221.627 297.321 218.237 298.112H218.308ZM198.037 271.853C193.093 272.645 182.922 268.544 181.792 267.321C192.104 265.019 199.026 268.76 198.037 271.853ZM196.483 264.875C197.048 260.918 202.557 253.508 203.758 252.933C203.052 261.566 198.531 266.314 196.483 264.875ZM232.716 307.033C225.836 308.594 219.48 311.968 214.282 316.817C226.995 316.889 234.552 310.558 232.716 307.033Z" fill="#67923D" stroke="#24420E" stroke-width="0.142566"/>
<path d="M204.04 278.688C207.007 278.832 208.561 271.206 203.828 261.853C204.719 267.423 204.791 273.097 204.04 278.688ZM211.951 293.076C207.591 289.116 202.319 286.344 196.624 285.019C202.91 293.724 210.68 295.882 211.951 293.076ZM194.717 254.947C192.707 248.391 189.113 242.454 184.264 237.681C185.323 250.055 191.751 256.889 194.717 254.947ZM200.65 279.623C197.119 276.961 187.23 275.738 185.818 276.17C193.022 282.213 200.085 282.285 200.65 279.623ZM194.011 261.781C190.96 257.459 186.842 254.034 182.074 251.853C185.959 260.774 192.386 264.083 194.011 261.709V261.781ZM195.988 227.537C196.554 222.069 192.033 210.703 190.762 209.408C188.714 220.918 192.81 228.616 195.918 227.537H195.988ZM199.096 216.818C201.003 212.141 199.661 200.703 198.743 199.264C194.223 208.976 196.059 216.961 199.096 216.818Z" fill="#406325" stroke="#24420E" stroke-width="0.142566"/>
<path d="M202.628 211.278C204.582 206.909 205.432 202.111 205.1 197.321C200.014 204.3 200.156 210.918 202.628 211.278ZM206.866 206.89C209.996 203.336 212.183 199.027 213.222 194.372C206.371 199.408 204.605 205.739 206.866 206.89ZM195.494 237.969C195.565 238.616 194.788 232.069 188.431 224.803C188.714 235.451 192.81 239.479 195.494 237.969ZM218.519 299.695C212.902 296.708 206.632 295.223 200.297 295.378C209.196 302.86 217.884 303.004 218.519 299.695ZM227.066 303.508C223.817 304.587 219.65 296.673 221.698 284.803C222.615 291.255 224.397 297.549 226.995 303.508H227.066ZM236.459 311.421C237.872 314.371 231.657 319.695 221.062 319.623C229.538 316.026 236.036 312.5 236.459 311.493V311.421ZM241.615 308.256C245.076 306.601 242.392 297.105 231.727 289.263C237.801 298.76 241.969 306.961 241.615 308.256Z" fill="#406325" stroke="#24420E" stroke-width="0.142566"/>
<path d="M238.084 308.328C241.05 306.385 237.59 297.896 226.783 291.997C233.493 300.054 238.225 307.105 238.084 308.328ZM207.854 286.026C210.468 286.17 212.092 279.335 208.207 270.918C208.702 278.832 208.49 285.306 207.854 286.026ZM198.107 230.846C200.226 233.58 207.996 229.839 212.869 219.336C208.522 223.881 203.55 227.758 198.107 230.846Z" fill="#406325" stroke="#24420E" stroke-width="0.142566"/>
<path d="M198.743 226.746C201.286 229.048 208.278 223.652 210.891 212.357C205.241 220.487 199.873 226.602 198.743 226.746ZM218.308 298.04C221.627 297.249 221.133 288.112 213.152 279.119C216.683 288.832 218.802 296.961 218.308 298.04ZM197.896 271.853C198.884 268.76 192.033 265.091 181.792 267.321C190.479 268.904 197.33 270.918 197.896 271.853ZM196.554 264.947C198.602 266.242 202.981 261.566 203.828 252.933C201.978 257.27 199.528 261.315 196.554 264.947ZM232.716 307.105C234.482 310.702 227.066 316.961 214.352 316.889C224.382 312.644 232.222 308.4 232.716 307.105Z" fill="#406325" stroke="#24420E" stroke-width="0.142566"/>
<path d="M199.096 274.947C196.138 270.154 191.998 266.234 187.089 263.58C190.621 273.364 197.119 277.321 199.096 274.947Z" fill="#406325" stroke="#24420E" stroke-width="0.142566"/>
<path d="M194.152 237.321C196.977 233.94 206.512 230.702 207.996 230.846C202.345 238.4 195.282 239.911 194.152 237.321ZM211.88 293.076C210.609 295.954 202.91 293.796 196.554 285.091C201.254 288.497 206.417 291.187 211.88 293.076ZM194.647 254.947C191.68 256.889 185.394 250.055 184.264 237.681C188.925 247.249 193.446 254.587 194.647 254.947ZM200.579 279.623C200.085 282.285 193.022 282.213 185.888 276.242C190.599 278.085 195.548 279.224 200.579 279.623ZM193.87 261.709C192.245 264.012 185.959 260.774 182.074 251.853C187.866 257.609 193.022 261.709 193.94 261.709H193.87ZM195.847 227.465C192.74 228.616 188.714 220.99 190.691 209.48C192.598 219.192 194.929 226.889 195.847 227.465ZM199.026 216.746C195.988 216.961 194.152 208.976 198.672 199.264C198.107 208.472 198.319 216.026 199.026 216.746ZM202.557 211.278C200.156 210.846 199.944 204.3 205.1 197.321C203.57 201.818 202.713 206.522 202.557 211.278ZM206.795 206.89C204.605 205.667 206.3 199.408 213.152 194.444C210.439 198.249 208.297 202.443 206.795 206.89Z" fill="#67923D" stroke="#24420E" stroke-width="0.142566"/>
<path d="M195.494 237.969C192.74 239.479 188.714 235.451 188.431 224.803C192.057 233.244 194.411 237.633 195.494 237.969ZM218.449 299.695C217.813 303.004 209.196 302.86 200.297 295.45C209.62 298.544 217.46 300.27 218.449 299.695ZM212.657 292.86C209.991 288.727 208.388 283.977 207.996 279.047C214.352 285.306 215.2 292.069 212.798 292.86H212.657ZM200.791 274.875C198.249 270.702 197.966 259.839 198.672 258.328C204.535 266.889 203.828 274.659 200.791 274.875ZM198.884 274.947C196.977 277.321 190.479 273.436 187.018 263.58C190.391 267.954 194.391 271.786 198.884 274.947Z" fill="#67923D" stroke="#24420E" stroke-width="0.142566"/>
<path d="M194.152 237.321C195.282 239.911 202.204 238.4 207.925 230.918C199.449 235.81 196.13 237.969 194.152 237.321ZM200.721 274.731C203.758 274.515 204.464 266.817 198.602 258.328C200.162 263.67 200.877 269.232 200.721 274.803V274.731ZM212.728 292.86C215.129 292.141 214.282 285.306 207.996 279.047C211.103 286.026 213.081 291.997 212.728 292.86Z" fill="#406325" stroke="#24420E" stroke-width="0.142566"/>
<path d="M195.423 250.127C196.836 244.084 194.223 233.868 192.386 231.71C189.067 242.789 192.245 250.846 195.423 250.127Z" fill="#406325" stroke="#24420E" stroke-width="0.142566"/>
<path d="M195.282 251.566C191.044 252.501 189.137 242.933 192.386 232.069C193.093 241.781 194.364 250.846 195.212 251.494L195.282 251.566Z" fill="#67923D" stroke="#24420E" stroke-width="0.142566"/>
<path d="M194.364 251.494C194.984 245.121 197.17 239.009 200.721 233.724C202.133 245.091 197.542 252.645 194.364 251.494Z" fill="#67923D" stroke="#24420E" stroke-width="0.142566"/>
<path d="M194.435 251.422C197.613 252.573 202.133 245.091 200.721 233.724C198.249 243.292 195.423 250.846 194.435 251.422Z" fill="#406325" stroke="#24420E" stroke-width="0.142566"/>
<path d="M195.353 258.4C196.331 252.144 198.914 246.263 202.84 241.35C203.405 253.004 198.39 259.983 195.353 258.4Z" fill="#67923D" stroke="#24420E" stroke-width="0.142566"/>
<path d="M195.423 258.472C198.39 260.055 203.405 253.148 202.84 241.566C199.732 250.774 196.483 258.04 195.423 258.472Z" fill="#406325" stroke="#24420E" stroke-width="0.142566"/>
<path d="M197.26 221.782C197.689 221.782 198.037 221.427 198.037 220.99C198.037 220.553 197.689 220.199 197.26 220.199C196.831 220.199 196.483 220.553 196.483 220.99C196.483 221.427 196.831 221.782 197.26 221.782Z" fill="#BA1F3E" stroke="#511124" stroke-width="0.142566"/>
<path d="M203.193 217.321C203.622 217.321 203.97 216.967 203.97 216.53C203.97 216.093 203.622 215.738 203.193 215.738C202.764 215.738 202.416 216.093 202.416 216.53C202.416 216.967 202.764 217.321 203.193 217.321Z" fill="#BA1F3E" stroke="#511124" stroke-width="0.142566"/>
<path d="M200.65 214.875C201.079 214.875 201.427 214.521 201.427 214.084C201.427 213.647 201.079 213.292 200.65 213.292C200.221 213.292 199.873 213.647 199.873 214.084C199.873 214.521 200.221 214.875 200.65 214.875Z" fill="#BA1F3E" stroke="#511124" stroke-width="0.142566"/>
<path d="M194.223 266.386C194.73 266.386 195.141 265.967 195.141 265.45C195.141 264.934 194.73 264.515 194.223 264.515C193.716 264.515 193.305 264.934 193.305 265.45C193.305 265.967 193.716 266.386 194.223 266.386Z" fill="#BA1F3E" stroke="#511124" stroke-width="0.142566"/>
<path d="M195.988 254.875C196.496 254.875 196.907 254.456 196.907 253.94C196.907 253.423 196.496 253.004 195.988 253.004C195.481 253.004 195.07 253.423 195.07 253.94C195.07 254.456 195.481 254.875 195.988 254.875Z" fill="#BA1F3E" stroke="#511124" stroke-width="0.142566"/>
<path d="M205.312 281.781C205.819 281.781 206.23 281.363 206.23 280.846C206.23 280.329 205.819 279.911 205.312 279.911C204.805 279.911 204.393 280.329 204.393 280.846C204.393 281.363 204.805 281.781 205.312 281.781Z" fill="#BA1F3E" stroke="#511124" stroke-width="0.142566"/>
<path d="M201.215 283.148C201.722 283.148 202.133 282.729 202.133 282.213C202.133 281.696 201.722 281.278 201.215 281.278C200.708 281.278 200.297 281.696 200.297 282.213C200.297 282.729 200.708 283.148 201.215 283.148Z" fill="#BA1F3E" stroke="#511124" stroke-width="0.142566"/>
<path d="M232.504 305.594C233.011 305.594 233.422 305.175 233.422 304.659C233.422 304.142 233.011 303.724 232.504 303.724C231.997 303.724 231.586 304.142 231.586 304.659C231.586 305.175 231.997 305.594 232.504 305.594Z" fill="#BA1F3E" stroke="#511124" stroke-width="0.142566"/>
<path d="M234.552 310.702C235.06 310.702 235.471 310.283 235.471 309.767C235.471 309.25 235.06 308.831 234.552 308.831C234.045 308.831 233.634 309.25 233.634 309.767C233.634 310.283 234.045 310.702 234.552 310.702Z" fill="#BA1F3E" stroke="#511124" stroke-width="0.142566"/>
<path d="M313.305 226.53C313.799 226.961 314.153 227.105 314.929 227.897M310.268 214.3C310.268 213.292 309.844 211.638 309.632 210.703M312.104 212.861C312.104 214.204 311.845 215.499 311.327 216.746M308.361 216.386C309.585 217.585 310.833 218.52 312.104 219.192M314.788 220.055C314.882 221.494 314.718 222.933 314.294 224.372M314.576 225.451L315.494 223.796M314.152 232.573C315.141 232.789 316.13 234.012 316.625 235.091M316.978 234.156L318.108 232.573M319.308 254.731L317.613 257.177M314.788 257.177C315.353 258.184 315.918 259.335 316.625 260.055M318.39 264.299C317.567 265.499 316.478 266.484 315.212 267.177M315.353 270.414C314.576 270.99 313.587 272.573 312.74 273.796M318.673 259.263L317.19 259.911M316.201 254.587L317.048 255.307M310.48 282.213H309.067M307.584 280.918L308.008 282.069M302.64 285.738C302.499 287.081 302.522 288.424 302.71 289.767M305.748 283.292L306.454 284.875M309.208 284.803L307.443 285.019M285.689 303.22L284.982 304.515M293.387 301.637C292.351 301.733 291.386 301.685 290.491 301.493M286.607 305.81C285.9 305.522 285.194 305.282 284.488 305.09M274.105 307.033C273.47 307.536 272.693 308.759 271.986 309.911M271.563 306.673C269.867 307.608 269.302 309.335 268.455 310.846M270.433 312.86C269.302 312.524 268.055 312.045 266.689 311.421M278.484 310.918C276.86 310.054 275.165 310.198 273.47 309.911M281.098 309.623C278.508 309.143 276.083 309.119 273.823 309.551M279.332 307.68L278.343 307.249M274.388 311.206L272.763 310.27M313.658 274.875C312.763 275.546 311.892 276.482 311.045 277.681M312.316 220.415L310.762 219.839" stroke="#24420E" stroke-width="0.285132"/>
<path d="M252.069 317.105C252.728 316.241 253.505 315.594 254.4 315.162C259.838 312.285 265.277 310.99 271.351 309.982C272.834 309.695 274.247 308.328 275.73 307.68C279.261 305.954 283.146 305.306 286.536 303.58C286.748 303.436 287.596 302.932 287.949 302.429C289.361 300.846 291.833 300.342 293.317 298.831C299.25 293.22 305.465 288.04 308.714 280.486C312.669 271.35 317.543 261.925 316.907 251.566C316.483 244.947 317.401 238.328 315.848 232.141C313.882 222.79 310.191 213.903 304.971 205.954L305.889 206.53C311.124 214.47 314.817 223.36 316.766 232.717C318.39 238.904 317.472 245.594 317.825 252.141C318.532 262.501 313.587 271.925 309.703 281.134C306.454 288.616 300.168 293.796 294.305 299.479C292.752 300.918 290.35 301.421 288.938 303.076L287.525 304.155C284.064 305.882 280.179 306.601 276.648 308.256C275.235 308.975 273.823 310.27 272.41 310.558C266.472 311.315 260.697 313.065 255.318 315.738C254.383 316.159 253.577 316.83 252.987 317.68L252.069 317.105Z" fill="#406325" stroke="#24420E" stroke-width="0.142566"/>
<path d="M308.008 280.918C309.985 275.594 308.008 263.076 307.019 261.494C302.287 272.573 304.617 281.35 308.008 280.918Z" fill="#406325" stroke="#24420E" stroke-width="0.142566"/>
<path d="M302.993 285.954C304.617 281.925 303.487 272.069 302.71 270.846C298.826 279.263 300.38 286.17 302.993 285.954ZM314.929 232.645C311.364 227.992 306.664 224.37 301.298 222.141C305.677 231.71 312.952 235.235 314.929 232.645Z" fill="#406325" stroke="#24420E" stroke-width="0.142566"/>
<path d="M313.799 226.889C311.472 222.044 307.942 217.902 303.558 214.875C305.748 224.228 311.61 228.76 313.799 226.889ZM317.119 237.609C314.647 234.731 306.383 231.925 305.112 232.069C310.056 238.544 316.13 239.911 317.119 237.609ZM315.141 270.99C320.195 270.954 325.146 269.538 329.479 266.889C320.368 264.875 314.294 268.256 315.141 270.99ZM315 266.889C315 262.86 310.55 254.803 309.35 253.94C308.997 262.573 312.811 267.968 315 266.889Z" fill="#406325" stroke="#24420E" stroke-width="0.142566"/>
<path d="M315.353 257.033C314.363 250.803 311.781 244.947 307.866 240.055C307.301 251.709 312.316 258.616 315.353 257.033ZM277.919 311.206C282.376 315.196 287.783 317.924 293.599 319.119C287.384 310.27 279.403 308.256 277.99 311.206H277.919Z" fill="#406325" stroke="#24420E" stroke-width="0.142566"/>
<path d="M308.008 280.774C304.547 281.206 302.287 272.573 307.019 261.494C306.666 271.709 307.16 279.983 308.008 280.774ZM270.291 312.141C276.046 313.535 281.365 316.38 285.759 320.414C275.094 320.486 268.808 315.162 270.221 312.213L270.291 312.141ZM270.291 306.457C271.704 300.702 280.886 291.206 282.652 290.558C280.109 302.86 272.975 308.903 270.291 306.457ZM285.335 303.508C285.514 296.916 287.337 290.479 290.633 284.803C292.752 296.601 288.514 304.587 285.335 303.508ZM300.521 293.004C304.86 289.055 310.107 286.283 315.777 284.947C309.491 293.652 301.792 295.81 300.45 293.004H300.521ZM318.673 254.659C319.379 250.127 325.524 241.781 326.866 241.062C326.018 250.846 321.004 256.17 318.673 254.731V254.659Z" fill="#67923D" stroke="#24420E" stroke-width="0.142566"/>
<path d="M310.409 282.069C315.742 279.313 321.665 277.954 327.643 278.112C319.308 285.091 311.045 285.163 310.409 282.069ZM317.684 264.443C320.884 259.93 325.196 256.357 330.185 254.084C326.089 263.436 319.379 266.889 317.684 264.443ZM316.625 231.638C316.625 226.17 322.275 215.307 323.688 214.228C324.464 225.81 319.662 233.076 316.625 231.638ZM311.751 213.005C310.532 208.292 310.507 203.341 311.68 198.616C315.565 206.458 314.294 213.005 311.68 213.005H311.751Z" fill="#67923D" stroke="#24420E" stroke-width="0.142566"/>
<path d="M308.714 211.422C305.013 206.822 302.489 201.36 301.368 195.523C309.703 202.213 311.539 210.199 308.714 211.422ZM316.978 236.242C316.766 236.889 319.097 230.702 327.007 225.235C324.182 235.523 319.238 238.4 316.978 236.242ZM292.893 300.918C299.267 297.59 306.356 295.933 313.517 296.098C303.487 304.587 293.599 304.731 292.893 300.918ZM302.993 285.954C300.38 286.098 298.755 279.263 302.64 270.846C302.145 278.76 302.357 285.234 302.993 285.954ZM314.929 232.645C313.022 235.235 305.748 231.782 301.368 222.141C305.334 226.329 309.908 229.871 314.929 232.645ZM313.729 226.889C311.539 228.76 305.748 224.3 303.558 214.875C308.29 221.638 312.74 226.746 313.729 226.889ZM317.119 237.681C316.13 239.911 310.127 238.616 305.182 232.141C312.528 236.386 315.424 238.184 317.19 237.681H317.119ZM315.283 270.918C314.364 268.184 320.439 264.947 329.55 266.961C324.624 267.533 319.813 268.868 315.283 270.918ZM315 266.889C312.74 267.968 308.997 262.645 309.35 254.012C310.615 258.581 312.518 262.942 315 266.961V266.889Z" fill="#67923D" stroke="#24420E" stroke-width="0.142566"/>
<path d="M315.283 257.177C312.246 258.76 307.301 251.853 307.866 240.271C310.974 249.479 314.223 256.745 315.283 257.177ZM278.061 311.206C279.473 308.184 287.313 310.198 293.599 318.975C285.83 314.155 279.12 310.846 278.061 311.206Z" fill="#67923D" stroke="#24420E" stroke-width="0.142566"/>
<path d="M285.335 303.364C288.584 304.515 292.752 296.601 290.703 284.731C288.726 294.803 286.324 302.788 285.335 303.436V303.364Z" fill="#406325" stroke="#24420E" stroke-width="0.142566"/>
<path d="M292.61 299.623C295.284 293.531 296.402 286.849 295.859 280.199C288.796 289.983 289.22 299.119 292.61 299.623ZM270.221 312.213C268.808 315.162 274.953 320.486 285.618 320.342C277.142 316.889 270.644 313.292 270.221 312.213ZM270.362 306.385C273.046 308.831 280.109 302.86 282.652 290.558C276.93 299.479 271.563 306.242 270.362 306.385ZM300.521 293.004C301.792 295.882 309.491 293.724 315.848 285.019C311.147 288.425 305.984 291.115 300.521 293.004ZM318.743 254.659C321.074 256.17 326.018 250.846 326.866 241.134C324.827 246.025 322.09 250.583 318.743 254.659ZM310.409 282.069C311.115 285.234 319.238 285.091 327.643 278.112C318.814 280.99 311.398 282.573 310.48 282.069H310.409ZM317.755 264.371C319.52 266.817 326.16 263.364 330.256 254.012C326.632 258.094 322.416 261.588 317.755 264.371ZM316.766 231.566C319.732 233.005 324.535 225.81 323.688 214.3C320.862 223.652 317.755 231.062 316.695 231.566H316.766ZM311.822 212.933C314.294 213.005 315.636 206.458 311.68 198.544C312.387 206.098 312.387 212.285 311.822 212.933ZM308.785 211.35C311.61 210.127 309.773 202.213 301.439 195.523C304.647 200.397 307.123 205.732 308.785 211.35ZM316.978 236.314C319.238 238.472 324.182 235.594 327.007 225.235C321.451 232.477 318.108 236.17 316.978 236.314ZM292.963 300.99C293.67 304.731 303.487 304.587 313.446 296.17C302.922 299.623 294.094 301.637 292.963 300.99Z" fill="#406325" stroke="#24420E" stroke-width="0.142566"/>
<path d="M297.766 295.45C299.798 290.926 300.672 285.951 300.309 280.99C295.012 288.184 295.224 295.019 297.766 295.378V295.45ZM311.61 274.803C314.152 270.702 314.435 259.767 313.729 258.256C307.866 266.817 308.573 274.587 311.61 274.803Z" fill="#406325" stroke="#24420E" stroke-width="0.142566"/>
<path d="M292.61 299.551C289.22 299.119 288.867 289.983 295.789 280.27C293.246 290.198 291.975 298.544 292.61 299.551ZM317.472 250.415C316.766 244.803 320.297 235.954 322.134 234.228C323.97 244.587 320.227 251.494 317.472 250.415ZM297.766 295.378C295.224 295.019 295.012 288.184 300.309 280.99C298.748 285.626 297.891 290.478 297.766 295.378ZM314.294 220.415C312.74 216.098 314.294 206.026 315.141 204.731C318.885 213.508 316.978 220.631 314.294 220.415ZM273.258 306.817C275.023 301.062 284.7 291.709 286.536 290.99C283.499 303.58 275.942 309.407 273.258 306.817ZM311.822 276.889C314.76 272.105 318.875 268.187 323.758 265.522C320.227 275.306 313.729 279.263 311.751 276.889H311.822ZM311.68 274.731C308.643 274.443 307.937 266.817 313.799 258.256C312.239 263.598 311.524 269.16 311.68 274.731Z" fill="#67923D" stroke="#24420E" stroke-width="0.142566"/>
<path d="M317.472 251.709C321.145 253.076 323.829 244.659 322.134 234.515C321.307 240.449 319.74 246.251 317.472 251.781V251.709Z" fill="#406325" stroke="#24420E" stroke-width="0.142566"/>
<path d="M318.037 251.422C318.39 246.026 313.093 234.875 311.68 233.652C310.268 245.019 314.859 252.573 318.037 251.422ZM314.294 220.343C317.048 220.631 318.885 213.58 315.141 204.731C315.424 213.005 315 219.695 314.294 220.343ZM273.328 306.745C276.012 309.407 283.499 303.58 286.536 291.062C280.321 299.911 274.529 306.601 273.328 306.745ZM311.892 276.889C313.87 279.263 320.368 275.378 323.899 265.522C320.484 269.907 316.436 273.74 311.892 276.889Z" fill="#406325" stroke="#24420E" stroke-width="0.142566"/>
<path d="M317.966 251.35C314.788 252.573 310.268 245.091 311.68 233.724C314.152 243.22 316.978 250.774 317.966 251.35Z" fill="#67923D" stroke="#24420E" stroke-width="0.142566"/>
<path d="M315.777 224.372C316.206 224.372 316.554 224.017 316.554 223.58C316.554 223.143 316.206 222.789 315.777 222.789C315.348 222.789 315 223.143 315 223.58C315 224.017 315.348 224.372 315.777 224.372Z" fill="#BA1F3E" stroke="#511124" stroke-width="0.142566"/>
<path d="M318.461 232.933C318.89 232.933 319.238 232.578 319.238 232.141C319.238 231.704 318.89 231.35 318.461 231.35C318.032 231.35 317.684 231.704 317.684 232.141C317.684 232.578 318.032 232.933 318.461 232.933Z" fill="#BA1F3E" stroke="#511124" stroke-width="0.142566"/>
<path d="M319.45 260.055C319.957 260.055 320.368 259.636 320.368 259.119C320.368 258.603 319.957 258.184 319.45 258.184C318.943 258.184 318.532 258.603 318.532 259.119C318.532 259.636 318.943 260.055 319.45 260.055Z" fill="#BA1F3E" stroke="#511124" stroke-width="0.142566"/>
<path d="M315.777 255.019C316.284 255.019 316.695 254.6 316.695 254.084C316.695 253.567 316.284 253.148 315.777 253.148C315.27 253.148 314.859 253.567 314.859 254.084C314.859 254.6 315.27 255.019 315.777 255.019Z" fill="#BA1F3E" stroke="#511124" stroke-width="0.142566"/>
<path d="M305.394 283.724C305.901 283.724 306.313 283.305 306.313 282.788C306.313 282.272 305.901 281.853 305.394 281.853C304.887 281.853 304.476 282.272 304.476 282.788C304.476 283.305 304.887 283.724 305.394 283.724Z" fill="#BA1F3E" stroke="#511124" stroke-width="0.142566"/>
<path d="M309.844 285.666C310.351 285.666 310.762 285.247 310.762 284.731C310.762 284.214 310.351 283.796 309.844 283.796C309.337 283.796 308.926 284.214 308.926 284.731C308.926 285.247 309.337 285.666 309.844 285.666Z" fill="#BA1F3E" stroke="#511124" stroke-width="0.142566"/>
<path d="M279.897 308.975C280.404 308.975 280.815 308.557 280.815 308.04C280.815 307.524 280.404 307.105 279.897 307.105C279.39 307.105 278.979 307.524 278.979 308.04C278.979 308.557 279.39 308.975 279.897 308.975Z" fill="#BA1F3E" stroke="#511124" stroke-width="0.142566"/>
<path d="M274.953 312.572C275.46 312.572 275.871 312.154 275.871 311.637C275.871 311.121 275.46 310.702 274.953 310.702C274.446 310.702 274.035 311.121 274.035 311.637C274.035 312.154 274.446 312.572 274.953 312.572Z" fill="#BA1F3E" stroke="#511124" stroke-width="0.142566"/>
<path d="M310.48 220.343C310.909 220.343 311.257 219.988 311.257 219.551C311.257 219.114 310.909 218.76 310.48 218.76C310.051 218.76 309.703 219.114 309.703 219.551C309.703 219.988 310.051 220.343 310.48 220.343Z" fill="#BA1F3E" stroke="#511124" stroke-width="0.142566"/>
<path d="M223.746 282.141C223.605 282.86 224.311 283.796 225.159 283.58C225.512 283.58 225.653 283.22 225.3 283.22C224.97 283.316 224.688 283.244 224.452 283.004C224.283 282.812 224.167 282.577 224.118 282.324C224.068 282.071 224.086 281.809 224.17 281.565L223.746 282.141Z" fill="#8C959D" stroke="#485654" stroke-width="0.071283"/>
<path d="M225.794 283.58C225.088 284.443 224.029 284.803 223.393 284.227C222.922 283.796 222.804 283.316 223.04 282.788L222.333 283.724C222.333 283.724 222.757 284.659 223.464 285.019C224.382 285.378 225.582 284.803 226.289 283.868C226.854 283.148 227.419 282.141 226.995 281.278C226.673 280.72 226.175 280.289 225.582 280.055L224.876 280.774C225.253 280.678 225.653 280.774 226.077 281.062C226.995 281.781 226.501 282.86 225.794 283.58Z" fill="#8C959D"/>
<path d="M225.794 283.58L225.017 284.299C224.688 284.491 224.335 284.563 223.958 284.515L223.464 284.299L223.11 283.868C223.016 283.724 222.946 283.556 222.899 283.364C222.851 283.172 222.899 282.98 223.04 282.788L223.11 282.86L222.333 283.796V283.724L223.04 284.659L223.534 284.947L224.099 285.019C224.502 285.011 224.894 284.886 225.229 284.659C225.606 284.467 225.912 284.227 226.148 283.939L226.854 282.932C227.042 282.597 227.113 282.213 227.066 281.781C227.066 281.589 227.019 281.398 226.924 281.206C226.608 280.687 226.138 280.284 225.582 280.055H225.653L224.947 280.846H224.876C225.017 280.75 225.182 280.702 225.371 280.702L225.936 280.846C226.265 281.038 226.477 281.326 226.571 281.709C226.618 282.093 226.571 282.429 226.43 282.716C226.289 283.1 226.077 283.388 225.794 283.58ZM225.794 283.58C226.077 283.388 226.265 283.1 226.359 282.716C226.454 282.333 226.501 281.997 226.501 281.709C226.407 281.374 226.195 281.134 225.865 280.99C225.535 280.75 225.229 280.702 224.947 280.846H224.876L225.582 279.983C226.175 280.217 226.673 280.648 226.995 281.206C227.136 281.35 227.207 281.541 227.207 281.781C227.207 282.261 227.113 282.669 226.924 283.004C226.783 283.388 226.548 283.724 226.218 284.011C225.983 284.347 225.677 284.611 225.3 284.803C224.97 285.043 224.57 285.162 224.099 285.162C223.891 285.18 223.682 285.15 223.487 285.076C223.291 285.001 223.115 284.883 222.969 284.731L222.263 283.724L222.969 282.788H223.11L223.04 283.364C223.04 283.508 223.087 283.676 223.181 283.868L223.534 284.227C223.628 284.371 223.77 284.443 223.958 284.443C224.335 284.491 224.688 284.443 225.017 284.299L225.794 283.58Z" fill="#485654"/>
<path d="M280.886 219.551L252.563 247.968L223.534 276.17L220.285 280.055C218.873 281.709 217.178 283.868 215.2 285.81C214.847 286.314 214.423 286.098 213.999 286.386C212.728 287.105 211.386 288.4 210.468 289.479L201.78 299.191C201.215 299.767 201.121 300.246 201.498 300.63L206.159 306.961C207.007 307.824 207.996 308.256 208.419 307.536C210.609 303.58 216.189 297.608 218.308 292.932C219.508 290.055 221.062 284.947 222.192 283.724C223.605 282.141 227.207 278.112 230.527 274.587L231.233 273.868C231.374 273.58 231.586 273.34 231.869 273.148C248.467 255.882 267.678 234.947 281.663 220.199L280.886 219.551Z" fill="#6C301E" stroke="#351710" stroke-width="0.142566" stroke-linejoin="round"/>
<path d="M222.051 276.242C221.25 276.146 220.568 275.81 220.003 275.235C220.85 275.522 221.698 275.81 222.475 275.45L222.051 276.242Z" fill="#8C959D" stroke="#485654" stroke-width="0.071283"/>
<path d="M310.409 198.544L287.949 217.393C287.713 217.633 287.501 217.633 287.313 217.393L285.265 215.667V215.235L286.254 214.228C286.348 214.132 286.324 213.988 286.183 213.796L285.759 213.364C285.571 213.316 285.406 213.364 285.265 213.508L284.276 214.587C283.711 214.635 283.381 214.971 283.287 215.595C269.726 229.048 258.002 241.062 244.511 254.299L228.549 269.839C227.984 270.558 225.512 271.925 223.887 273.004C223.275 273.388 222.851 273.748 222.616 274.083L221.345 278.04C220.921 278.904 219.579 280.918 219.579 281.062L222.263 283.724L230.103 275.163L230.738 274.443C230.222 273.709 229.603 273.054 228.902 272.501L228.408 272.141C228.408 271.949 228.525 271.781 228.761 271.637C247.407 253.22 267.607 233.005 283.993 216.53H284.7L286.748 218.76C287.219 219.24 287.619 219.336 287.949 219.048L310.48 198.544H310.409Z" fill="#B2B6BA" stroke="#485654" stroke-width="0.142566"/>
<path d="M221.415 277.896H221.839L222.192 277.824L222.687 276.098L223.252 274.371C223.11 274.227 222.946 274.131 222.757 274.083C222.946 274.083 223.11 274.179 223.252 274.371L222.757 276.098L222.263 277.824L221.839 277.968L221.415 277.896Z" fill="#485654"/>
<path d="M226.501 276.673C226.735 276.673 226.924 276.48 226.924 276.242C226.924 276.003 226.735 275.81 226.501 275.81C226.267 275.81 226.077 276.003 226.077 276.242C226.077 276.48 226.267 276.673 226.501 276.673Z" stroke="#485654" stroke-width="0.142566"/>
<path d="M223.817 279.407C224.051 279.407 224.241 279.214 224.241 278.975C224.241 278.737 224.051 278.544 223.817 278.544C223.583 278.544 223.393 278.737 223.393 278.975C223.393 279.214 223.583 279.407 223.817 279.407Z" stroke="#485654" stroke-width="0.142566"/>
<path d="M271.704 226.53L274.176 229.048L274.6 228.616L272.128 226.17L271.704 226.602V226.53Z" fill="#8C959D" stroke="#485654" stroke-width="0.071283"/>
<path d="M276.663 283.131C276.769 283.857 276.019 284.756 275.183 284.498C274.83 284.48 274.706 284.114 275.059 284.132C275.383 284.244 275.669 284.186 275.916 283.958C276.094 283.775 276.221 283.546 276.283 283.296C276.345 283.045 276.339 282.783 276.267 282.535L276.663 283.131Z" fill="#8C959D" stroke="#485654" stroke-width="0.071283"/>
<path d="M274.548 284.466C275.212 285.364 276.253 285.776 276.915 285.233C277.406 284.825 277.547 284.352 277.337 283.813L277.998 284.782C277.998 284.782 277.529 285.695 276.807 286.019C275.872 286.333 274.701 285.698 274.04 284.729C273.51 283.983 272.994 282.948 273.459 282.107C273.808 281.566 274.325 281.16 274.928 280.956L275.599 281.71C275.228 281.595 274.823 281.671 274.386 281.937C273.435 282.61 273.877 283.713 274.548 284.466Z" fill="#8C959D"/>
<path d="M274.548 284.466L275.289 285.224C275.609 285.432 275.959 285.521 276.337 285.492L276.841 285.301L277.215 284.887C277.316 284.748 277.394 284.584 277.45 284.395C277.507 284.206 277.469 284.012 277.337 283.813L277.263 283.881L277.994 284.854L277.998 284.782L277.247 285.681L276.74 285.944L276.172 285.988C275.77 285.96 275.385 285.816 275.06 285.572C274.693 285.362 274.399 285.107 274.178 284.808L273.521 283.767C273.349 283.422 273.296 283.035 273.364 282.607C273.373 282.415 273.43 282.226 273.533 282.039C273.873 281.536 274.362 281.157 274.928 280.956L274.858 280.952L275.525 281.778L275.596 281.782C275.459 281.679 275.297 281.623 275.109 281.613L274.538 281.729C274.199 281.904 273.974 282.181 273.861 282.559C273.796 282.94 273.827 283.278 273.954 283.572C274.077 283.963 274.275 284.261 274.548 284.466ZM274.548 284.466C274.275 284.261 274.1 283.964 274.025 283.576C273.949 283.188 273.918 282.85 273.932 282.563C274.042 282.232 274.265 282.003 274.601 281.876C274.942 281.653 275.25 281.62 275.525 281.778L275.596 281.782L274.932 280.884C274.329 281.089 273.811 281.494 273.462 282.035C273.314 282.172 273.235 282.36 273.223 282.6C273.2 283.079 273.275 283.491 273.447 283.835C273.569 284.226 273.788 284.573 274.104 284.876C274.323 285.223 274.616 285.502 274.983 285.713C275.301 285.968 275.695 286.108 276.165 286.132C276.372 286.159 276.582 286.14 276.781 286.075C276.98 286.011 277.162 285.902 277.314 285.757L278.068 284.786L277.408 283.817L277.266 283.81L277.309 284.388C277.302 284.532 277.247 284.697 277.144 284.884L276.774 285.226C276.673 285.365 276.529 285.429 276.341 285.42C275.962 285.449 275.612 285.384 275.289 285.224L274.548 284.466Z" fill="#485654"/>
<path d="M222.593 217.773L249.519 247.566L277.161 277.178L280.219 281.22C281.551 282.943 283.141 285.183 285.023 287.221C285.351 287.742 285.785 287.547 286.194 287.856C287.43 288.637 288.708 289.998 289.573 291.121L297.785 301.254C298.321 301.857 298.392 302.341 297.998 302.705L293.038 308.797C292.15 309.617 291.142 309.999 290.753 309.259C288.756 305.198 283.469 298.956 281.577 294.18C280.516 291.246 279.209 286.067 278.139 284.789C276.804 283.138 273.399 278.935 270.252 275.249L269.582 274.495C269.454 274.201 269.254 273.951 268.981 273.745C253.231 255.674 235.047 233.808 221.786 218.381L222.593 217.773Z" fill="#6C301E" stroke="#351710" stroke-width="0.142566" stroke-linejoin="round"/>
<path d="M278.639 277.323C279.443 277.267 280.141 276.966 280.733 276.419C279.872 276.665 279.012 276.91 278.253 276.512L278.639 277.323Z" fill="#8C959D" stroke="#485654" stroke-width="0.071283"/>
<path d="M194.112 195.322L215.642 215.266C215.865 215.517 216.077 215.528 216.277 215.298L218.405 213.675L218.426 213.244L217.487 212.189C217.397 212.088 217.428 211.946 217.578 211.761L218.022 211.351C218.212 211.313 218.375 211.369 218.509 211.519L219.445 212.646C220.007 212.723 220.32 213.074 220.384 213.702C233.284 227.814 244.418 240.397 257.257 254.29L272.455 270.605C272.985 271.351 275.389 272.84 276.96 273.998C277.553 274.412 277.959 274.792 278.178 275.14L279.258 279.155C279.64 280.038 280.883 282.117 280.877 282.261L278.068 284.786L270.648 275.845L270.048 275.095C270.599 274.387 271.248 273.764 271.975 273.246L272.486 272.911C272.495 272.72 272.386 272.546 272.158 272.391C254.417 253.068 235.21 231.871 219.634 214.601L218.928 214.566L216.775 216.691C216.282 217.147 215.878 217.223 215.562 216.919L194.042 195.319L194.112 195.322Z" fill="#B2B6BA" stroke="#485654" stroke-width="0.142566"/>
<path d="M279.194 279.008L278.771 278.987L278.422 278.897L278.011 277.148L277.529 275.395C277.677 275.259 277.846 275.171 278.037 275.133C277.849 275.123 277.679 275.211 277.529 275.395L277.94 277.144L278.351 278.894L278.767 279.058L279.194 279.008Z" fill="#485654"/>
<path d="M274.173 277.533C273.94 277.521 273.759 277.319 273.771 277.081C273.782 276.843 273.981 276.659 274.215 276.671C274.449 276.682 274.629 276.885 274.617 277.123C274.606 277.361 274.407 277.545 274.173 277.533Z" stroke="#485654" stroke-width="0.142566"/>
<path d="M276.723 280.397C276.489 280.385 276.309 280.183 276.321 279.945C276.332 279.707 276.531 279.523 276.765 279.535C276.998 279.546 277.179 279.749 277.167 279.987C277.156 280.225 276.957 280.409 276.723 280.397Z" stroke="#485654" stroke-width="0.142566"/>
<path d="M231.429 225.2L228.839 227.592L228.437 227.14L231.023 224.82L231.426 225.272L231.429 225.2Z" fill="#8C959D" stroke="#485654" stroke-width="0.071283"/>
<path d="M223.534 303.076C216.702 301.416 209.559 301.64 202.84 303.724C214.352 309.479 223.675 307.033 223.464 303.004L223.534 303.076ZM286.395 305.45C291.904 303.076 305.324 304.947 306.948 306.17C295.506 311.853 286.112 309.407 286.324 305.45H286.395Z" fill="#67923D" stroke="#24420E" stroke-width="0.142566"/>
<path d="M223.393 303.148C223.605 307.105 214.352 309.551 202.84 303.795C213.646 304.515 222.475 304.083 223.322 303.076L223.393 303.148ZM286.395 305.522C286.254 309.479 295.506 311.925 307.019 306.17C296.212 306.889 287.384 306.457 286.466 305.45L286.395 305.522Z" fill="#406325" stroke="#24420E" stroke-width="0.142566"/>
<path d="M276.154 299.191C261.921 279.117 243.583 262.427 222.404 250.271C224.876 250.127 230.456 253.076 232.787 254.587C249.667 265.666 264.076 280.342 279.12 297.608C278.272 298.472 277.707 299.047 276.719 299.767L276.154 299.191Z" fill="#B2B6BA" stroke="#485654" stroke-width="0.142566"/>
<path d="M277.637 299.047L276.507 299.911C260.262 278.616 237.66 258.256 222.333 250.271C243.593 260.199 261.463 280.27 277.425 298.903H277.496L277.637 299.047Z" fill="#8C959D"/>
<path d="M277.637 299.047L276.507 299.911C269.001 290.092 260.683 280.946 251.645 272.573C244.887 266.254 237.713 260.413 230.173 255.091C227.631 253.364 225.017 251.757 222.333 250.271V250.127C227.984 252.813 233.281 256.002 238.225 259.695C243.169 263.34 247.878 267.321 252.351 271.637C256.816 275.914 261.127 280.353 265.277 284.947C269.467 289.599 273.564 294.275 277.566 298.975L277.637 299.047ZM277.637 299.047C273.587 294.299 269.467 289.647 265.277 285.091C261.129 280.495 256.818 276.055 252.351 271.781C247.878 267.513 243.169 263.532 238.225 259.839C233.281 256.146 228.007 252.98 222.404 250.343V250.199C227.731 253.279 232.851 256.716 237.731 260.486C247.459 268.051 256.49 276.503 264.711 285.738C268.858 290.318 272.817 295.07 276.577 299.983L277.637 299.047Z" fill="#485654"/>
<path d="M282.51 295.594C281.098 296.026 279.85 296.577 278.767 297.249C278.626 298.256 277.354 299.407 276.295 299.623L275.871 299.047H275.73L275.306 299.263C274.835 299.215 274.458 299.455 274.176 299.983C273.893 300.702 274.388 301.637 275.023 302.213C275.73 302.716 276.012 302.932 276.719 302.932C277.496 302.716 277.919 301.997 278.131 301.781C280.744 305.019 282.722 306.817 286.042 309.407C287.525 309.407 288.302 308.472 287.808 307.393C287.619 307.009 287.313 306.865 286.889 306.961V306.601C288.584 305.018 289.361 303.004 287.525 299.551C285.971 296.673 284.205 295.666 282.581 295.666H282.51V295.594ZM286.889 298.903C287.219 299.383 287.454 299.863 287.596 300.342C288.726 302.501 287.808 305.162 285.971 305.954H285.83C286.112 305.45 285.265 304.371 284.841 304.731C285.053 304.227 284.347 303.292 283.782 303.508C284.064 303.004 283.428 302.141 282.793 302.429C283.075 301.925 282.581 301.134 281.875 301.278C282.086 300.702 281.592 299.983 280.956 300.126C280.956 299.599 280.839 299.239 280.603 299.047C281.31 298.472 282.228 297.537 283.005 297.105C284.912 296.242 286.112 297.824 286.889 298.903Z" fill="#FAB81C" stroke="#6C301E" stroke-width="0.142566"/>
<path d="M287.737 301.206C287.36 300.918 287.219 300.654 287.313 300.414C287.501 300.126 287.784 300.078 288.161 300.27C288.537 300.462 288.702 300.702 288.655 300.99C288.467 301.278 288.161 301.349 287.737 301.206Z" fill="#FAB81C" stroke="#6C301E" stroke-width="0.071283"/>
<path d="M287.525 300.486C287.148 300.246 287.007 299.959 287.101 299.623C287.29 299.383 287.572 299.359 287.949 299.551C288.325 299.743 288.49 299.983 288.443 300.27C288.255 300.558 287.949 300.63 287.525 300.486Z" fill="#FAB81C" stroke="#6C301E" stroke-width="0.071283"/>
<path d="M287.101 299.623C286.725 299.431 286.583 299.191 286.677 298.903C286.866 298.616 287.148 298.544 287.525 298.688C287.902 298.975 288.043 299.239 287.949 299.479C287.855 299.719 287.572 299.767 287.101 299.623Z" fill="#FAB81C" stroke="#6C301E" stroke-width="0.071283"/>
<path d="M286.536 298.903C286.159 298.664 286.018 298.4 286.112 298.112C286.301 297.872 286.583 297.824 286.96 297.968C287.337 298.256 287.501 298.52 287.454 298.76C287.266 299.047 286.96 299.095 286.536 298.903Z" fill="#FAB81C" stroke="#6C301E" stroke-width="0.071283"/>
<path d="M285.83 298.184C285.406 297.944 285.265 297.704 285.406 297.465V297.321C285.547 297.393 285.9 297.465 285.83 297.249C285.83 297.105 285.83 297.057 285.83 297.105L286.254 297.249C286.63 297.537 286.772 297.8 286.677 298.04C286.583 298.28 286.301 298.328 285.83 298.184Z" fill="#FAB81C" stroke="#6C301E" stroke-width="0.071283"/>
<path d="M278.131 301.781C278.626 300.486 279.544 299.335 280.603 299.047ZM278.272 301.997C279.191 302.141 280.603 301.062 280.956 300.126ZM279.12 303.004C280.25 303.292 281.451 302.141 281.945 301.278ZM280.179 304.155C281.592 304.155 282.369 303.22 282.793 302.429ZM281.239 305.234C282.44 305.234 283.499 304.299 283.782 303.508ZM282.228 306.242C283.546 306.146 284.417 305.666 284.841 304.803ZM283.428 307.249C284.629 307.321 285.547 306.601 285.83 305.954ZM284.7 308.328C285.83 308.328 286.607 307.608 286.889 306.889Z" fill="#FAB81C"/>
<path d="M278.131 301.781C278.445 300.871 279.009 300.072 279.756 299.479C279.944 299.287 280.227 299.143 280.603 299.047L279.756 299.479L279.049 300.198C278.662 300.672 278.352 301.207 278.131 301.781ZM278.272 301.997C278.555 301.997 278.838 301.949 279.12 301.853L279.826 301.421L280.533 300.846C280.151 301.295 279.665 301.641 279.12 301.853C278.838 301.997 278.555 302.045 278.272 301.997ZM279.12 303.004H279.968L280.674 302.572C281.158 302.231 281.567 301.79 281.875 301.278L281.38 301.997L280.745 302.644L280.038 303.004H279.12ZM280.179 304.155C280.462 304.155 280.721 304.107 280.956 304.011L281.663 303.652L282.369 303.076L282.793 302.357C282.587 302.913 282.217 303.39 281.733 303.724L281.027 304.083L280.179 304.155ZM281.239 305.234C281.804 305.234 282.298 305.042 282.722 304.659C283.155 304.36 283.516 303.967 283.782 303.508C283.735 303.748 283.593 303.987 283.358 304.227L282.793 304.731L282.087 305.162L281.239 305.234ZM282.228 306.242C282.51 306.242 282.769 306.194 283.005 306.098C283.523 305.97 284.006 305.724 284.417 305.378L284.841 304.731L284.417 305.45C284.229 305.642 283.994 305.786 283.711 305.882C283.24 306.17 282.769 306.289 282.298 306.242H282.228ZM283.428 307.249C283.919 307.23 284.4 307.108 284.841 306.889L285.406 306.529C285.594 306.337 285.736 306.146 285.83 305.954C285.783 306.194 285.665 306.385 285.477 306.529C285.19 306.79 284.854 306.988 284.49 307.111C284.126 307.235 283.74 307.282 283.358 307.249H283.428ZM284.7 308.328L285.406 308.256L285.971 307.968L286.466 307.536L286.889 306.961C286.722 307.401 286.417 307.774 286.021 308.021C285.625 308.268 285.161 308.376 284.7 308.328Z" fill="#6C301E"/>
<path d="M233.346 297.308C248.723 278.129 268.001 262.576 289.85 251.72C287.39 251.427 281.649 254.035 279.234 255.402C261.738 265.442 246.5 279.222 230.477 295.549C231.273 296.462 231.804 297.07 232.749 297.848L233.346 297.308Z" fill="#B2B6BA" stroke="#485654" stroke-width="0.142566"/>
<path d="M231.874 297.075L232.952 298.005C250.408 277.729 274.155 258.77 289.92 251.725C268.12 260.351 249.113 279.308 232.094 296.944L232.024 296.939L231.874 297.075Z" fill="#8C959D"/>
<path d="M231.874 297.075L232.952 298.005C241.016 288.657 249.852 280.029 259.362 272.217C266.476 266.317 273.977 260.92 281.813 256.063C284.452 254.493 287.154 253.047 289.92 251.724L289.929 251.581C284.132 253.921 278.658 256.784 273.508 260.172C268.36 263.512 263.428 267.202 258.711 271.24C254.006 275.239 249.443 279.411 245.034 283.745C240.579 288.136 236.218 292.557 231.949 297.007L231.874 297.075ZM231.874 297.075C236.193 292.579 240.577 288.184 245.025 283.889C249.433 279.552 253.995 275.381 258.703 271.384C263.417 267.393 268.349 263.704 273.499 260.316C278.65 256.928 284.098 254.087 289.845 251.792L289.854 251.648C284.357 254.401 279.046 257.523 273.955 260.992C263.803 267.955 254.296 275.847 245.552 284.569C241.146 288.89 236.918 293.395 232.877 298.072L231.874 297.075Z" fill="#485654"/>
<path d="M227.21 293.333C228.595 293.849 229.809 294.475 230.851 295.211C230.933 296.225 232.135 297.451 233.18 297.73L233.637 297.181L233.778 297.19L234.188 297.431C234.661 297.411 235.023 297.674 235.275 298.217C235.515 298.952 234.967 299.856 234.299 300.392C233.564 300.852 233.27 301.051 232.565 301.008C231.802 300.746 231.42 300.002 231.221 299.774C228.424 302.848 226.345 304.523 222.881 306.908C221.4 306.819 220.679 305.838 221.235 304.791C221.446 304.419 221.76 304.294 222.177 304.415L222.198 304.056C220.598 302.374 219.94 300.316 221.974 296.98C223.693 294.201 225.514 293.302 227.136 293.401L227.206 293.405L227.21 293.333ZM222.646 296.372C222.289 296.831 222.026 297.295 221.857 297.766C220.604 299.852 221.365 302.564 223.152 303.465L223.293 303.474C223.041 302.954 223.95 301.928 224.352 302.313C224.17 301.797 224.929 300.906 225.48 301.156C225.228 300.636 225.913 299.813 226.53 300.138C226.278 299.619 226.817 298.859 227.514 299.045C227.336 298.458 227.871 297.769 228.498 297.951C228.528 297.425 228.667 297.073 228.913 296.895C228.241 296.278 227.379 295.289 226.629 294.811C224.775 293.834 223.485 295.342 222.646 296.372Z" fill="#FAB81C" stroke="#6C301E" stroke-width="0.142566"/>
<path d="M221.666 298.619C222.059 298.354 222.215 298.1 222.135 297.855C221.964 297.556 221.685 297.491 221.298 297.66C220.91 297.828 220.732 298.058 220.762 298.348C220.933 298.647 221.235 298.737 221.666 298.619Z" fill="#FAB81C" stroke="#6C301E" stroke-width="0.0712831"/>
<path d="M221.92 297.914C222.31 297.697 222.467 297.418 222.393 297.077C222.219 296.827 221.938 296.786 221.551 296.954C221.164 297.123 220.985 297.353 221.016 297.643C221.187 297.941 221.488 298.032 221.92 297.914Z" fill="#FAB81C" stroke="#6C301E" stroke-width="0.0712831"/>
<path d="M222.393 297.077C222.78 296.909 222.935 296.678 222.858 296.385C222.687 296.086 222.409 295.997 222.024 296.118C221.632 296.383 221.475 296.637 221.555 296.882C221.635 297.128 221.915 297.193 222.393 297.077Z" fill="#FAB81C" stroke="#6C301E" stroke-width="0.0712831"/>
<path d="M222.999 296.393C223.389 296.177 223.545 295.922 223.468 295.629C223.294 295.378 223.015 295.313 222.63 295.434C222.238 295.699 222.058 295.952 222.091 296.194C222.262 296.493 222.565 296.559 222.999 296.393Z" fill="#FAB81C" stroke="#6C301E" stroke-width="0.0712831"/>
<path d="M223.746 295.718C224.183 295.504 224.338 295.273 224.211 295.025L224.219 294.882C224.074 294.945 223.717 294.995 223.8 294.784C223.809 294.641 223.811 294.593 223.809 294.641L223.377 294.759C222.984 295.023 222.828 295.278 222.908 295.523C222.988 295.768 223.267 295.833 223.746 295.718Z" fill="#FAB81C" stroke="#6C301E" stroke-width="0.0712831"/>
<path d="M231.222 299.774C230.803 298.451 229.954 297.247 228.913 296.895ZM231.068 299.981C230.143 300.069 228.796 298.906 228.498 297.951ZM230.163 300.935C229.018 301.154 227.887 299.932 227.443 299.041ZM229.039 302.02C227.628 301.935 226.907 300.954 226.53 300.138ZM227.918 303.033C226.72 302.961 225.716 301.963 225.481 301.156ZM226.872 303.979C225.562 303.803 224.72 303.272 224.348 302.385ZM225.615 304.912C224.412 304.911 223.538 304.137 223.293 303.474ZM224.283 305.912C223.155 305.844 222.422 305.079 222.181 304.344Z" fill="#FAB81C"/>
<path d="M231.222 299.774C230.961 298.846 230.445 298.015 229.734 297.377C229.557 297.175 229.283 297.014 228.913 296.895L229.734 297.377L230.397 298.138C230.756 298.635 231.034 299.187 231.222 299.774ZM231.068 299.981C230.786 299.964 230.507 299.899 230.23 299.786L229.55 299.312L228.879 298.695C229.234 299.167 229.698 299.542 230.23 299.786C230.504 299.946 230.783 300.011 231.068 299.981ZM230.163 300.935L229.317 300.884L228.637 300.41C228.174 300.039 227.791 299.574 227.514 299.045L227.966 299.793L228.563 300.478L229.247 300.879L230.163 300.935ZM229.039 302.02C228.757 302.003 228.501 301.939 228.271 301.829L227.587 301.428L226.916 300.81L226.535 300.067C226.708 300.634 227.05 301.133 227.513 301.495L228.197 301.897L229.039 302.02ZM227.918 303.033C227.354 302.999 226.872 302.778 226.471 302.369C226.057 302.044 225.718 301.63 225.481 301.156C225.514 301.398 225.641 301.646 225.862 301.9L226.396 302.437L227.076 302.91L227.918 303.033ZM226.872 303.979C226.59 303.962 226.335 303.898 226.105 303.788C225.595 303.629 225.128 303.354 224.737 302.985L224.352 302.313L224.733 303.057C224.91 303.259 225.136 303.417 225.413 303.53C225.866 303.846 226.329 303.994 226.802 303.974L226.872 303.979ZM225.615 304.912C225.127 304.863 224.654 304.712 224.226 304.467L223.683 304.074C223.506 303.871 223.376 303.671 223.293 303.474C223.326 303.716 223.433 303.915 223.612 304.07C223.883 304.347 224.207 304.565 224.563 304.71C224.92 304.856 225.302 304.926 225.686 304.916L225.615 304.912ZM224.283 305.912L223.582 305.798L223.035 305.476L222.567 305.015L222.177 304.415C222.319 304.865 222.602 305.255 222.982 305.526C223.363 305.796 223.82 305.932 224.283 305.912Z" fill="#6C301E"/>
<path d="M206.018 212.861C211.623 209.85 216.367 205.414 219.791 199.983C208.773 203.005 203.758 210.271 206.018 212.933V212.861ZM308.996 216.242C306.589 210.587 302.795 205.657 297.978 201.926C299.956 212.861 306.454 218.328 308.996 216.314V216.242Z" fill="#406325" stroke="#24420E" stroke-width="0.142566"/>
<path d="M206.018 212.861C203.687 210.271 208.702 203.077 219.72 200.055C211.951 206.098 206.159 211.71 206.018 212.861ZM308.996 216.242C306.383 218.4 300.026 212.933 298.049 202.069C303.134 209.983 307.937 216.098 308.996 216.242Z" fill="#67923D" stroke="#24420E" stroke-width="0.142566"/>
<path d="M236.389 269.048C236.389 269.048 232.08 269.551 230.809 263.436C229.538 256.889 234.552 256.242 234.552 256.242C234.552 256.242 240.274 255.594 243.876 255.522L245.43 268.472L236.389 269.048Z" fill="url(#paint0_radial_24_2800)" stroke="#999270" stroke-width="0.142566"/>
<path d="M236.954 267.105C236.954 267.105 234.129 267.609 233.564 263.076C233.14 259.839 235.117 259.407 235.117 259.407L241.615 260.558V266.458L236.954 267.105Z" fill="url(#paint1_radial_24_2800)" stroke="#999270" stroke-width="0.142566"/>
<path d="M235.118 259.407C235.118 259.407 239.355 259.119 241.474 258.832L242.392 262.932L237.378 263.22C237.378 263.22 237.025 259.551 235.118 259.407Z" fill="url(#paint2_radial_24_2800)" stroke="#999270" stroke-width="0.142566"/>
<path d="M234.27 256.314C234.27 256.314 239.567 254.947 240.274 260.918C240.415 262.501 239.567 266.098 236.954 267.105L246.771 266.026L245.853 255.235L242.604 255.522C242.604 255.522 235.541 255.738 234.27 256.242V256.314Z" fill="url(#paint3_radial_24_2800)" stroke="#999270" stroke-width="0.142566"/>
<path d="M236.389 269.048C236.389 269.048 273.046 266.53 276.789 266.673C287.949 260.486 276.789 236.098 267.395 222.429C268.455 219.336 246.277 212.429 236.318 213.077C235 213.077 233.776 213.149 232.645 213.292C227.207 213.868 227.136 220.99 229.326 225.523C231.445 229.839 250.797 265.091 237.236 268.904L236.389 269.048Z" fill="#F9F0AA" stroke="#999270" stroke-width="0.142566"/>
<path d="M275.659 236.817C273.187 231.566 270.221 226.53 267.395 222.429C268.455 219.336 246.277 212.429 236.318 213.077C235 213.077 233.776 213.149 232.645 213.292C227.207 213.868 227.136 220.99 229.326 225.523C230.032 226.818 232.363 231.278 234.906 236.817" fill="url(#paint4_linear_24_2800)"/>
<path d="M275.659 236.817C273.187 231.566 270.221 226.53 267.395 222.429C268.455 219.336 246.277 212.429 236.318 213.077C235 213.077 233.776 213.149 232.645 213.292C227.207 213.868 227.136 220.99 229.326 225.523C230.032 226.818 232.363 231.278 234.906 236.817" stroke="#999270" stroke-width="0.142566"/>
<path d="M238.366 245.235C242.322 255.738 244.511 266.817 237.236 268.904L236.389 269.048C236.389 269.048 273.116 266.53 276.789 266.673C282.863 263.292 282.298 254.587 279.049 245.091" fill="url(#paint5_linear_24_2800)"/>
<path d="M238.366 245.235C242.322 255.738 244.511 266.817 237.236 268.904L236.389 269.048C236.389 269.048 273.116 266.53 276.789 266.673C282.863 263.292 282.298 254.587 279.049 245.091" stroke="#999270" stroke-width="0.142566"/>
<path d="M232.999 215.379C230.385 215.379 229.679 217.969 229.75 219.551C229.82 223.868 232.999 224.012 232.999 224.012L237.236 223.796L239.214 215.019L232.999 215.379Z" fill="url(#paint6_radial_24_2800)" stroke="#999270" stroke-width="0.142566"/>
<path d="M232.999 215.379L239.214 215.019L239.92 221.566L234.411 221.854C234.411 221.854 236.177 216.602 232.999 215.379Z" fill="url(#paint7_linear_24_2800)" stroke="#999270" stroke-width="0.142566"/>
<path d="M267.395 222.429C272.128 221.71 272.057 215.235 268.808 212.573C257.86 212.141 243.523 212.501 233.069 213.292C234.27 213.292 237.59 213.58 237.943 217.969C238.028 218.921 237.879 219.881 237.509 220.76C237.139 221.639 236.56 222.411 235.824 223.005C235.007 223.63 234.02 223.981 232.999 224.012H235.541L237.66 223.724C252.493 221.782 267.325 222.429 267.325 222.429H267.395Z" fill="url(#paint8_linear_24_2800)" stroke="#999270" stroke-width="0.142566"/>
<path d="M240.839 232.573C240.744 232.333 240.556 232.141 240.274 231.997C240.038 232.045 239.92 231.949 239.92 231.71H240.485L241.615 231.566C241.851 231.71 241.851 231.83 241.615 231.925C241.262 231.925 241.474 232.285 241.545 232.501L242.463 234.659C242.557 234.947 242.722 235.115 242.957 235.163L243.734 235.091C243.876 234.899 243.923 234.659 243.876 234.371C243.805 234.156 244.229 234.228 244.229 234.371L244.511 235.379C244.511 235.475 244.417 235.499 244.229 235.451L242.11 235.594C241.898 235.594 241.545 235.81 241.404 235.594C241.404 235.307 241.827 235.451 241.827 235.235L241.615 234.515L240.839 232.573ZM244.229 232.285C244.182 232.093 244.017 231.925 243.734 231.782C243.499 231.829 243.358 231.734 243.311 231.494C243.452 231.398 243.617 231.398 243.805 231.494L245.006 231.35C245.218 231.35 245.288 231.71 245.006 231.638C244.817 231.686 244.77 231.853 244.864 232.141L245.924 234.587C245.924 234.779 246.042 234.923 246.277 235.019C246.465 235.019 246.63 235.091 246.771 235.235C246.724 235.379 246.583 235.403 246.348 235.307C246.018 235.307 245.641 235.355 245.218 235.451C245.029 235.451 244.912 235.379 244.864 235.235C244.794 235.019 245.218 235.235 245.288 234.947C245.288 234.755 245.194 234.515 245.006 234.228L244.229 232.357V232.285ZM247.407 232.861C247.501 232.957 247.619 232.957 247.76 232.861C247.996 232.861 248.137 232.765 248.184 232.573C248.184 232.189 248.019 231.901 247.69 231.71C247.454 231.566 247.195 231.518 246.913 231.566L246.983 231.925L247.407 232.861ZM247.831 234.012C247.925 234.252 248.066 234.491 248.255 234.731C248.443 234.827 248.631 234.827 248.82 234.731C249.055 234.683 249.149 234.563 249.102 234.371C249.055 233.844 248.773 233.484 248.255 233.292H247.548L247.69 233.652L247.831 234.012ZM246.418 232.285C246.324 231.997 246.159 231.758 245.924 231.566C245.736 231.614 245.571 231.566 245.43 231.422C245.43 231.206 245.853 231.35 245.995 231.278C246.63 231.278 247.266 231.062 247.831 231.278C248.396 231.47 248.749 231.853 248.89 232.429C248.89 232.717 248.749 232.909 248.467 233.005L248.82 233.077C249.291 233.22 249.62 233.508 249.809 233.94C249.997 234.228 249.997 234.539 249.809 234.875C249.479 235.115 249.149 235.211 248.82 235.163C248.302 235.163 247.76 235.211 247.195 235.307C246.983 235.307 246.913 234.947 247.195 234.947C247.384 234.899 247.431 234.755 247.337 234.515L246.418 232.357V232.285ZM251.645 230.918C251.833 230.966 251.951 231.086 251.998 231.278L252.21 231.925C252.022 231.973 251.88 231.877 251.786 231.638C251.645 231.446 251.48 231.35 251.292 231.35H250.444C250.35 231.494 250.374 231.638 250.515 231.782L250.939 232.789C251.127 232.789 251.315 232.717 251.504 232.573C251.504 232.429 251.292 232.069 251.645 232.141C251.786 232.333 251.88 232.549 251.927 232.789L252.281 233.58C252.069 233.796 251.927 233.508 251.857 233.292C251.668 233.1 251.433 233.029 251.151 233.077C251.103 233.077 251.103 233.148 251.151 233.292L251.574 234.371C251.763 234.563 251.998 234.635 252.281 234.587C252.563 234.635 252.799 234.539 252.987 234.3C253.128 234.156 252.775 233.796 252.987 233.724C253.222 233.772 253.34 233.916 253.34 234.156C253.34 234.395 253.411 234.587 253.552 234.731C253.505 234.875 253.411 234.923 253.269 234.875L251.151 235.019C250.868 235.019 250.515 235.163 250.444 234.875C250.444 234.659 250.939 234.803 250.868 234.515L250.585 233.796L249.809 231.853C249.714 231.566 249.526 231.398 249.244 231.35C249.102 231.35 248.82 231.35 248.961 231.062H249.667L251.645 230.918ZM253.269 231.853C253.222 231.614 253.058 231.398 252.775 231.206C252.54 231.254 252.375 231.158 252.281 230.918C252.516 230.87 252.751 230.87 252.987 230.918C253.552 230.918 254.117 230.702 254.682 230.918C255.294 231.062 255.671 231.494 255.812 232.213C255.812 232.501 255.647 232.693 255.318 232.789C255.106 232.789 255.459 232.861 255.53 232.933C256 233.172 256.33 233.532 256.518 234.012C256.589 234.156 256.872 234.515 256.942 234.156C257.013 233.796 257.366 234.156 257.295 234.371C257.248 234.659 257.083 234.803 256.801 234.803C256.518 234.803 256.259 234.659 256.024 234.371C255.789 233.892 255.483 233.484 255.106 233.148C255.027 233.085 254.936 233.039 254.839 233.014C254.741 232.99 254.64 232.986 254.541 233.005V233.364L254.965 234.228C255.153 234.419 255.388 234.491 255.671 234.443C255.883 234.515 255.812 234.875 255.53 234.803H254.329C254.117 234.947 253.693 234.803 253.834 234.587C254.117 234.587 254.235 234.467 254.188 234.228L253.481 232.357L253.269 231.853ZM254.258 232.573C254.447 232.621 254.658 232.621 254.894 232.573C255.082 232.477 255.129 232.309 255.035 232.069C254.941 231.686 254.729 231.398 254.4 231.206C254.258 231.206 253.834 231.062 253.764 231.278L254.258 232.429V232.573ZM259.344 233.724C259.438 233.964 259.579 234.132 259.767 234.228C259.956 234.228 260.121 234.3 260.262 234.443C260.215 234.587 260.073 234.635 259.838 234.587H258.708C258.473 234.683 258.331 234.611 258.284 234.371C258.425 234.228 258.779 234.371 258.779 234.084L258.425 233.292L257.648 231.206C257.507 231.014 257.342 230.942 257.154 230.99C256.872 230.942 256.707 231.038 256.66 231.278C256.754 231.518 256.754 231.71 256.66 231.853C256.471 231.806 256.354 231.686 256.307 231.494C256.259 231.302 256.165 231.062 256.024 230.774C256.118 230.678 256.236 230.654 256.377 230.702L259.344 230.559C259.579 230.559 259.697 230.678 259.697 230.918L259.979 231.638C259.838 231.782 259.697 231.71 259.556 231.422C259.414 231.134 259.202 230.966 258.92 230.918C258.731 230.918 258.543 230.966 258.355 231.062L258.496 231.566L259.344 233.724ZM262.028 233.077C261.933 233.124 261.91 233.22 261.957 233.364V233.94C262.098 234.132 262.287 234.228 262.522 234.228C262.663 234.228 262.593 234.587 262.381 234.515H261.533C261.321 234.587 260.968 234.443 261.18 234.228C261.321 234.228 261.439 234.156 261.533 234.012V230.415C261.721 230.271 261.863 230.319 261.957 230.559L264.5 233.796C264.641 233.988 264.829 234.084 265.065 234.084C265.277 234.084 265.347 234.443 265.065 234.371H264.005C263.817 234.419 263.652 234.419 263.511 234.371C263.417 234.228 263.464 234.132 263.652 234.084C263.864 234.084 263.652 233.796 263.581 233.652L263.158 233.077H262.028ZM262.804 232.717C262.899 232.717 262.899 232.669 262.804 232.573L261.886 231.35V232.789H262.804V232.717ZM264.994 231.422C264.923 231.134 264.782 230.702 264.429 230.702C264.146 230.702 264.029 230.606 264.076 230.415H265.277C265.747 230.319 266.218 230.343 266.689 230.487C267.819 230.918 268.526 231.734 268.808 232.933C268.808 233.412 268.667 233.796 268.384 234.084C267.819 234.371 267.231 234.443 266.619 234.3L265.63 234.371C265.418 234.371 265.347 234.012 265.63 234.084C265.865 233.988 265.912 233.82 265.771 233.58L264.994 231.422ZM266.407 233.22C266.454 233.46 266.571 233.7 266.76 233.94H267.466C267.796 233.844 267.96 233.628 267.96 233.292C267.93 232.763 267.786 232.247 267.537 231.782C267.254 231.302 266.83 230.966 266.265 230.774H265.559C265.559 230.774 265.559 230.87 265.559 231.062L266.407 233.22ZM251.504 242.141C251.551 242.381 251.739 242.525 252.069 242.573C252.21 242.573 252.563 242.573 252.563 242.861C252.375 242.957 252.186 242.957 251.998 242.861L250.939 243.004H250.303C250.162 242.909 250.185 242.813 250.374 242.717C250.609 242.717 250.75 242.621 250.797 242.429L250.656 241.853L249.809 239.839C249.761 239.647 249.597 239.575 249.314 239.623C249.126 239.671 248.961 239.623 248.82 239.479C248.82 239.264 249.173 239.335 249.314 239.192L250.02 238.976C250.162 238.976 250.232 239.048 250.232 239.192L251.504 242.141ZM251.998 238.904H253.411C253.693 238.904 253.552 238.544 253.693 238.544C253.929 238.64 254.023 238.808 253.976 239.048C253.976 239.383 253.834 239.527 253.552 239.479H252.493L252.846 240.343L253.269 240.199C253.976 240.199 254.823 240.63 255.106 241.35C255.294 241.734 255.294 242.093 255.106 242.429C254.823 242.765 254.447 242.909 253.976 242.861C253.599 242.861 253.269 242.717 252.987 242.429C252.916 242.285 252.916 241.925 253.128 241.997C253.458 241.997 253.623 242.141 253.623 242.429C253.764 242.525 253.929 242.549 254.117 242.501C254.352 242.501 254.494 242.381 254.541 242.141C254.541 241.758 254.423 241.422 254.188 241.134C254.046 240.846 253.74 240.678 253.269 240.63L252.704 240.702C252.516 240.654 252.422 240.534 252.422 240.343L251.927 238.976L252.069 238.904H251.998ZM256.872 239.623C256.777 239.288 256.565 239.048 256.236 238.904C256.095 238.904 255.741 238.832 255.953 238.616H257.083C257.601 238.52 258.096 238.544 258.567 238.688C259.697 239.12 260.403 239.935 260.686 241.134C260.733 241.614 260.568 241.997 260.191 242.285C259.673 242.477 259.108 242.549 258.496 242.501L257.578 242.645C257.366 242.645 257.295 242.285 257.578 242.285C257.766 242.237 257.813 242.069 257.719 241.781L256.872 239.623ZM258.284 241.422C258.378 241.662 258.52 241.901 258.708 242.141H259.414C259.697 241.997 259.838 241.758 259.838 241.422C259.838 240.942 259.673 240.439 259.344 239.911C259.014 239.383 258.59 239.072 258.072 238.976H257.366V239.264L258.284 241.422ZM262.804 238.328C262.993 238.376 263.111 238.496 263.158 238.688C263.205 238.88 263.275 239.072 263.37 239.264C263.181 239.407 263.04 239.335 262.946 239.048C262.899 238.856 262.757 238.736 262.522 238.688H261.604C261.557 238.88 261.557 239.024 261.604 239.12L262.028 240.127C262.263 240.127 262.451 240.079 262.593 239.983C262.734 239.839 262.381 239.479 262.734 239.551C262.922 239.647 263.016 239.839 263.016 240.127L263.37 240.918C263.299 241.206 263.016 240.918 262.946 240.702C262.804 240.511 262.616 240.439 262.381 240.487C262.192 240.487 262.145 240.534 262.239 240.63L262.663 241.71C262.852 241.901 263.087 241.973 263.37 241.925C263.699 241.925 263.935 241.853 264.076 241.71C264.217 241.566 263.935 241.278 264.076 241.134C264.358 241.182 264.476 241.302 264.429 241.494L264.641 242.213C264.594 242.213 264.5 242.213 264.358 242.213L262.169 242.357C261.933 242.453 261.721 242.429 261.533 242.285C261.392 241.997 261.886 242.141 261.957 241.925L261.745 241.278L260.968 239.192C260.874 238.952 260.686 238.784 260.403 238.688C260.262 238.688 259.979 238.688 260.121 238.4H260.827L262.804 238.328ZM243.593 248.616C243.734 248.952 243.97 249.144 244.299 249.192C244.912 249.335 245.43 249.599 245.853 249.983C246.089 250.271 246.206 250.606 246.206 250.99C246.159 251.374 245.924 251.614 245.5 251.709C245.123 251.853 244.723 251.829 244.299 251.638C244.158 251.566 244.229 251.925 243.946 251.853C243.852 251.662 243.805 251.446 243.805 251.206L243.522 250.486C243.617 250.343 243.734 250.391 243.876 250.63C244.111 251.11 244.488 251.374 245.006 251.422C245.335 251.422 245.524 251.278 245.571 250.99C245.524 250.606 245.335 250.319 245.006 250.127C244.535 249.983 244.064 249.791 243.593 249.551C243.392 249.433 243.222 249.267 243.098 249.066C242.975 248.865 242.902 248.636 242.887 248.4C242.934 248.064 243.122 247.849 243.452 247.753C243.781 247.657 244.158 247.657 244.582 247.753C244.676 247.657 244.817 247.633 245.006 247.681C245.006 247.825 245.053 247.968 245.147 248.112L245.359 248.76C245.171 248.856 245.053 248.808 245.006 248.616C244.817 248.28 244.582 248.088 244.299 248.04C244.017 248.04 243.781 248.112 243.593 248.256V248.616ZM248.255 247.393C248.49 247.441 248.608 247.561 248.608 247.753L248.749 248.328C248.655 248.472 248.537 248.424 248.396 248.184C248.349 247.992 248.184 247.873 247.902 247.825H247.054C247.007 248.016 247.007 248.16 247.054 248.256L247.407 249.263C247.643 249.263 247.831 249.215 247.972 249.12C248.113 248.976 247.831 248.688 248.043 248.616C248.278 248.712 248.396 248.88 248.396 249.12C248.443 249.407 248.537 249.719 248.678 250.055C248.537 250.199 248.42 250.127 248.325 249.839C248.231 249.647 248.043 249.575 247.76 249.623C247.572 249.623 247.501 249.671 247.548 249.767L247.972 250.846C248.066 251.038 248.231 251.11 248.467 251.062C248.796 251.062 249.079 250.99 249.314 250.846C249.361 250.654 249.361 250.462 249.314 250.271C249.55 250.175 249.691 250.247 249.738 250.486L249.879 251.206C249.832 251.35 249.738 251.398 249.597 251.35L247.478 251.494C247.195 251.494 246.913 251.709 246.771 251.494C246.771 251.206 247.125 251.278 247.195 251.062C247.195 250.918 247.148 250.726 247.054 250.486L246.348 248.328C246.348 248.088 246.183 247.945 245.853 247.897C245.618 247.897 245.524 247.801 245.571 247.609H246.277L248.255 247.393ZM251.221 250.415C251.315 250.654 251.457 250.822 251.645 250.918C251.927 250.87 252.116 250.918 252.21 251.062C252.21 251.35 251.857 251.206 251.716 251.206C251.339 251.206 250.962 251.254 250.585 251.35C250.397 251.35 250.256 251.302 250.162 251.206C250.162 250.918 250.515 251.062 250.585 250.918L250.515 250.343L249.809 248.184C249.714 247.897 249.55 247.729 249.314 247.681C249.079 247.729 248.961 247.633 248.961 247.393C249.055 247.345 249.22 247.345 249.455 247.393C249.926 247.297 250.444 247.249 251.009 247.249C251.268 247.267 251.517 247.357 251.729 247.509C251.94 247.661 252.107 247.87 252.21 248.112C252.351 248.448 252.351 248.76 252.21 249.048C251.833 249.287 251.433 249.431 251.009 249.479C250.915 249.479 250.915 249.551 251.009 249.695L251.221 250.415ZM250.797 249.12H251.292C251.527 249.024 251.621 248.856 251.574 248.616C251.574 248.28 251.457 247.992 251.221 247.753C250.986 247.513 250.727 247.465 250.444 247.609C250.397 247.705 250.397 247.825 250.444 247.968L250.797 249.12ZM255.176 250.199C255.176 250.391 255.294 250.534 255.53 250.63C255.765 250.63 255.93 250.702 256.024 250.846C256.165 251.062 255.671 250.99 255.53 250.99L254.4 251.062C254.211 251.062 254.093 250.99 254.046 250.846C254.188 250.702 254.541 250.846 254.541 250.558L254.329 249.695L253.623 247.609C253.576 247.465 253.411 247.417 253.128 247.465C252.94 247.465 252.775 247.537 252.634 247.681V248.256C252.445 248.352 252.351 248.28 252.351 248.04L252.069 247.321C252.116 247.177 252.234 247.105 252.422 247.105L255.318 246.961C255.553 246.961 255.671 247.081 255.671 247.321L255.953 248.04C255.812 248.136 255.694 248.088 255.6 247.897C255.459 247.609 255.224 247.441 254.894 247.393C254.753 247.393 254.564 247.393 254.329 247.393L254.47 247.897L255.176 250.199ZM256.66 247.825C256.66 247.537 256.518 247.345 256.236 247.249C256.048 247.297 255.906 247.201 255.812 246.961C255.906 246.913 256.048 246.913 256.236 246.961L257.507 246.817C257.719 246.745 257.86 247.105 257.648 247.105C257.437 247.105 257.225 247.249 257.295 247.465L257.648 248.616L258.143 250.199C258.19 250.343 258.308 250.438 258.496 250.486C258.779 250.438 258.92 250.534 258.92 250.774H258.425L257.295 250.918C257.154 250.918 256.872 250.774 257.013 250.63C257.248 250.63 257.39 250.534 257.437 250.343L257.225 249.479L256.66 247.825ZM260.756 246.674C260.945 246.721 261.039 246.841 261.039 247.033L261.18 247.609C261.039 247.753 260.921 247.705 260.827 247.465C260.78 247.225 260.615 247.081 260.332 247.033H259.556C259.508 247.225 259.508 247.393 259.556 247.537L259.909 248.472C260.05 248.472 260.238 248.424 260.474 248.328C260.615 248.256 260.332 247.897 260.544 247.897C260.78 247.945 260.897 248.088 260.897 248.328C260.945 248.664 261.039 248.976 261.18 249.263C261.039 249.407 260.921 249.359 260.827 249.12C260.733 248.88 260.544 248.784 260.262 248.832C260.191 248.832 259.909 248.832 260.05 248.976L260.403 250.055C260.544 250.247 260.709 250.343 260.897 250.343C261.227 250.343 261.51 250.271 261.745 250.127C261.792 249.935 261.816 249.719 261.816 249.479C262.051 249.431 262.169 249.527 262.169 249.767L262.31 250.486C262.31 250.63 262.216 250.678 262.028 250.63L259.909 250.702C259.626 250.75 259.391 250.75 259.202 250.702C259.132 250.415 259.556 250.486 259.626 250.343L259.556 249.767L258.849 247.609C258.849 247.321 258.684 247.153 258.355 247.105C258.214 247.105 257.931 246.961 258.072 246.817H258.779L260.827 246.674H260.756ZM262.169 247.393C262.075 247.105 261.886 246.937 261.604 246.889C261.392 246.961 261.251 246.458 261.604 246.602H262.663L263.158 247.249L264.711 249.335C264.664 249.335 264.641 249.263 264.641 249.12L264.923 246.53C265.065 246.386 265.418 246.53 265.63 246.386C265.842 246.386 266.336 246.386 266.195 246.674C265.865 246.674 265.724 246.817 265.771 247.105L266.619 249.695C266.666 249.983 266.854 250.103 267.184 250.055C267.395 250.055 267.395 250.486 267.184 250.415H265.912C265.583 250.51 265.418 250.438 265.418 250.199C265.63 250.199 265.983 250.055 265.842 249.767L265.135 247.465C265.135 247.561 265.135 247.657 265.135 247.753L264.994 249.911L264.923 250.486C264.735 250.486 264.617 250.415 264.57 250.271L262.522 247.609L262.663 247.825C262.852 248.544 263.063 249.239 263.299 249.911C263.393 250.151 263.581 250.271 263.864 250.271C264.052 250.462 264.005 250.558 263.723 250.558H262.663C262.475 250.462 262.475 250.367 262.663 250.271C262.946 250.175 262.993 249.983 262.804 249.695L262.169 247.393ZM268.314 247.968C268.408 248.016 268.526 248.016 268.667 247.968C268.902 248.016 269.067 247.921 269.161 247.681C269.161 247.345 269.043 247.057 268.808 246.817C268.526 246.674 268.243 246.626 267.96 246.674V247.033L268.314 247.968ZM268.667 249.12L268.949 249.839C269.185 249.935 269.397 249.959 269.585 249.911C269.773 249.911 269.867 249.791 269.867 249.551C269.867 249.072 269.656 248.712 269.232 248.472H268.526V248.688L268.667 249.12ZM267.325 247.393C267.325 247.105 267.184 246.865 266.901 246.674C266.666 246.674 266.524 246.602 266.477 246.458C266.407 246.242 266.83 246.458 266.972 246.386C267.631 246.338 268.267 246.338 268.879 246.386C269.444 246.578 269.75 246.961 269.797 247.537C269.75 247.825 269.585 248.04 269.302 248.184C269.397 248.136 269.514 248.136 269.656 248.184C270.032 248.328 270.315 248.616 270.503 249.048C270.692 249.335 270.692 249.647 270.503 249.983C270.174 250.223 269.82 250.319 269.444 250.271L267.819 250.343C267.607 250.343 267.537 249.983 267.819 250.055C268.055 250.007 268.102 249.839 267.96 249.551L267.325 247.393ZM270.927 247.249C270.927 246.961 270.786 246.721 270.503 246.53C270.268 246.53 270.126 246.458 270.079 246.314C270.221 246.098 270.503 246.314 270.786 246.242H272.198C272.81 246.29 273.211 246.626 273.399 247.249C273.493 247.633 273.399 247.921 273.116 248.112L272.834 248.256C273.305 248.448 273.634 248.736 273.823 249.12L274.176 249.695C274.317 249.743 274.388 249.671 274.388 249.479C274.67 249.335 274.812 249.695 274.67 249.911C274.482 250.199 274.247 250.295 273.964 250.199C273.841 250.184 273.724 250.136 273.625 250.06C273.526 249.984 273.448 249.883 273.399 249.767L272.693 248.544C272.457 248.4 272.245 248.376 272.057 248.472V248.76L272.41 249.623C272.551 249.815 272.74 249.911 272.975 249.911C273.258 249.911 273.258 250.271 272.975 250.199H271.704C271.516 250.247 271.351 250.247 271.209 250.199C271.068 249.839 271.492 249.983 271.633 249.839L271.492 249.192L270.927 247.249ZM271.845 247.968C271.916 248.184 272.269 247.968 272.41 247.968C272.646 247.921 272.74 247.801 272.693 247.609C272.693 247.225 272.575 246.913 272.34 246.674C272.104 246.53 271.869 246.506 271.633 246.602C271.539 246.65 271.539 246.769 271.633 246.961L271.845 247.897V247.968ZM276.719 246.098C276.907 246.146 277.001 246.266 277.001 246.458C277.001 246.65 277.072 246.841 277.213 247.033C277.025 247.177 276.883 247.129 276.789 246.889C276.789 246.65 276.648 246.506 276.365 246.458H275.447C275.353 246.554 275.353 246.698 275.447 246.889L275.73 247.897C275.965 247.897 276.154 247.849 276.295 247.753C276.507 247.681 276.224 247.393 276.436 247.249C276.672 247.297 276.766 247.465 276.719 247.753C276.766 248.088 276.86 248.4 277.001 248.688C276.86 248.832 276.742 248.784 276.648 248.544C276.601 248.304 276.436 248.208 276.154 248.256C276.083 248.256 275.8 248.112 275.871 248.256L276.224 249.479C276.318 249.671 276.483 249.743 276.719 249.695C277.048 249.695 277.331 249.647 277.566 249.551C277.613 249.359 277.637 249.168 277.637 248.976C277.919 248.88 278.037 248.952 277.99 249.192L278.131 249.911C278.084 250.055 277.99 250.103 277.849 250.055H275.659C275.424 250.103 275.235 250.103 275.094 250.055C274.882 249.767 275.235 249.839 275.377 249.695C275.518 249.551 275.377 249.335 275.377 249.192L274.741 246.961C274.741 246.674 274.6 246.506 274.317 246.458C273.94 246.458 273.823 246.362 273.964 246.17H274.67L276.719 246.098ZM253.552 255.522C253.552 255.235 253.411 254.995 253.128 254.803C252.846 254.803 252.728 254.731 252.775 254.587L253.481 254.515C254.046 254.467 254.611 254.467 255.176 254.515C256.118 254.755 256.73 255.307 257.013 256.17C257.201 256.745 257.154 257.297 256.872 257.825C256.448 258.256 255.93 258.448 255.318 258.4C254.847 258.4 254.4 258.448 253.976 258.544C253.834 258.616 253.552 258.472 253.693 258.256C253.976 258.256 254.117 258.136 254.117 257.896L253.834 256.817L253.552 255.522ZM254.682 257.321C254.729 257.561 254.823 257.777 254.965 257.968C255.2 258.064 255.435 258.064 255.671 257.968C256 257.968 256.212 257.753 256.307 257.321C256.362 256.777 256.264 256.228 256.024 255.738C255.933 255.515 255.788 255.319 255.603 255.169C255.418 255.018 255.198 254.917 254.965 254.875H254.188C254.188 254.875 254.188 254.971 254.188 255.163L254.682 257.321ZM259.697 254.084C259.885 254.132 259.979 254.251 259.979 254.443L260.121 255.091C259.932 255.187 259.814 255.139 259.767 254.947C259.673 254.707 259.532 254.563 259.344 254.515H258.425C258.331 254.611 258.331 254.755 258.425 254.947C258.425 255.331 258.496 255.666 258.637 255.954C258.873 255.954 259.061 255.906 259.202 255.81C259.344 255.666 259.132 255.379 259.344 255.307C259.532 255.403 259.626 255.57 259.626 255.81L259.838 256.745C259.838 256.961 259.485 256.745 259.485 256.602C259.438 256.362 259.273 256.266 258.99 256.314C258.92 256.314 258.637 256.242 258.779 256.386C258.779 256.721 258.873 257.105 259.061 257.537C259.108 257.729 259.273 257.801 259.556 257.753C259.885 257.753 260.168 257.681 260.403 257.537C260.45 257.345 260.497 257.153 260.544 256.961C260.686 256.865 260.78 256.961 260.827 257.249C260.827 257.441 260.874 257.681 260.968 257.968C260.874 258.064 260.756 258.088 260.615 258.04L258.496 258.184C258.261 258.28 258.049 258.28 257.86 258.184C257.766 257.992 257.86 257.896 258.143 257.896C258.331 257.753 258.355 257.585 258.214 257.393L257.719 255.091C257.625 254.803 257.484 254.635 257.295 254.587C257.013 254.587 256.895 254.491 256.942 254.299H257.648L259.697 254.084ZM264.288 257.033C264.288 257.273 264.429 257.441 264.711 257.537C264.9 257.537 265.065 257.585 265.206 257.681C265.277 257.896 264.923 257.825 264.782 257.825L263.581 257.896C263.346 257.896 263.158 257.896 263.016 257.896C262.828 257.801 262.852 257.705 263.087 257.609C263.322 257.609 263.487 257.513 263.581 257.321L263.511 256.745L263.016 254.731C263.016 254.539 262.875 254.467 262.593 254.515C262.404 254.611 262.239 254.587 262.098 254.443C262.098 254.155 262.451 254.227 262.593 254.156L263.37 253.868C263.511 253.868 263.581 253.94 263.581 254.084L264.288 257.033ZM266.901 254.659C266.901 254.323 266.736 254.132 266.407 254.084C266.124 254.084 265.936 254.156 265.842 254.299C265.747 254.587 265.842 254.827 266.124 255.019L266.76 255.379L266.901 254.947V254.659ZM267.466 256.745C267.372 256.41 267.136 256.17 266.76 256.026C266.619 255.978 266.501 255.954 266.407 255.954C266.297 256.034 266.212 256.144 266.162 256.272C266.112 256.399 266.099 256.539 266.124 256.673C266.265 257.153 266.501 257.393 266.83 257.393C267.113 257.489 267.348 257.393 267.537 257.105V256.745H267.466ZM268.172 256.602C268.172 256.985 268.031 257.297 267.749 257.537C267.372 257.777 266.901 257.825 266.336 257.681C265.912 257.585 265.63 257.297 265.488 256.817C265.488 256.434 265.606 256.098 265.842 255.81C265.912 255.81 266.195 255.738 265.983 255.666C265.559 255.522 265.324 255.235 265.277 254.803C265.135 254.419 265.253 254.108 265.63 253.868C265.942 253.704 266.304 253.664 266.644 253.758C266.983 253.851 267.276 254.07 267.466 254.371C267.607 254.707 267.607 254.995 267.466 255.235L267.042 255.594C267.419 255.642 267.701 255.834 267.89 256.17C268.031 256.266 268.102 256.41 268.102 256.602H268.172ZM270.433 257.033C270.621 257.033 270.739 256.937 270.786 256.745C270.856 256.602 270.786 256.242 270.998 256.314C271.139 256.314 271.209 256.458 271.209 256.745C271.257 257.033 271.162 257.297 270.927 257.537C270.786 257.633 270.597 257.657 270.362 257.609H269.161C268.973 257.705 268.808 257.705 268.667 257.609C268.62 257.465 268.62 257.297 268.667 257.105C268.855 256.626 269.091 256.242 269.373 255.954C269.703 255.762 269.891 255.498 269.938 255.163C269.938 254.875 269.891 254.587 269.797 254.299C269.747 254.218 269.681 254.148 269.604 254.093C269.527 254.038 269.439 253.999 269.347 253.979C269.255 253.959 269.16 253.958 269.067 253.976C268.975 253.994 268.887 254.03 268.808 254.084C268.573 254.227 268.502 254.395 268.596 254.587C268.737 254.731 269.02 254.587 269.091 254.875C269.185 255.115 269.114 255.259 268.879 255.307C268.643 255.355 268.408 255.187 268.172 254.803C268.078 254.371 268.219 254.036 268.596 253.796C268.973 253.556 269.373 253.508 269.797 253.652C270.221 253.796 270.503 254.084 270.644 254.515C270.739 254.803 270.715 255.115 270.574 255.45C270.197 255.882 269.797 256.29 269.373 256.673C269.279 256.769 269.255 256.913 269.302 257.105C269.397 256.961 269.514 256.913 269.656 256.961L270.433 257.033ZM273.187 256.745C273.187 256.937 273.328 257.081 273.611 257.177C273.799 257.177 273.964 257.225 274.105 257.321C274.247 257.537 273.893 257.537 273.752 257.537H271.845C271.751 257.345 271.798 257.249 271.986 257.249C272.175 257.249 272.34 257.153 272.481 256.961V256.386L271.986 254.371C271.939 254.179 271.822 254.108 271.633 254.156C271.445 254.203 271.28 254.203 271.139 254.156C270.998 253.868 271.351 253.868 271.492 253.796L272.34 253.508C272.528 253.508 272.622 253.58 272.622 253.724L273.187 256.745Z" fill="#B07E09"/>
<path d="M253.058 198.041L250.374 201.35C249.526 205.091 251.645 207.969 255.812 210.415C259.132 212.573 265.347 213.077 267.325 211.35L257.648 201.998L253.058 198.041Z" fill="url(#paint9_radial_24_2800)" stroke="#4C0505" stroke-width="0.142566"/>
<path d="M272.693 295.09L271.28 293.292C265.138 301.776 257.257 308.796 248.184 313.867C258.849 310.846 265.842 302.932 272.693 295.09ZM261.745 320.774C265.719 312.854 270.007 305.102 274.6 297.537L273.116 295.594C267.89 304.371 261.816 314.803 261.816 320.774H261.745ZM291.268 238.4C290.598 235.178 289.58 232.041 288.231 229.048C280.649 216.052 270.02 205.175 257.295 197.393V197.177H257.578L257.507 197.106H257.79L257.648 196.89H257.931L257.719 196.602H258.002L257.79 196.386H258.143L257.931 196.098H258.214L257.931 195.882L258.355 195.811L258.002 195.595L258.355 195.523L258.072 195.307L258.496 195.163L258.143 194.947L258.567 194.731L258.143 194.444L258.637 194.3L258.072 194.084L258.567 193.796H258.002L258.355 193.293H257.86L258.072 192.933H257.648L257.86 192.573L257.366 192.645L257.578 192.213L257.154 192.501L257.295 191.998L256.801 192.285L256.872 191.782L256.448 192.142L256.518 191.638L256.165 191.998V191.494L255.812 191.926V191.422L255.53 191.782L255.388 191.35L255.106 191.782L255.035 191.278L254.823 191.782L254.682 191.278L254.47 191.782L254.329 191.35L254.188 191.782L254.046 191.35L253.905 191.926L253.764 191.422L253.552 191.998L253.34 191.494V192.07L253.058 191.566V192.142L252.704 191.71V192.285L252.422 191.854V192.357L252.139 192.142L252.281 192.645L251.927 192.429L252.069 192.861L251.786 192.717L251.857 193.149H251.574L251.716 193.436H251.504L251.645 193.724C251.389 194.536 251.293 195.392 251.362 196.242C251.362 196.386 251.786 196.53 251.857 196.674C251.998 196.962 252.045 197.106 251.998 197.106C250.868 198.976 249.879 200.415 249.809 202.573C250.656 201.422 251.645 199.983 252.916 199.983C252.281 201.062 251.998 204.372 252.704 204.875L253.269 203.94C253.269 204.659 253.364 205.211 253.552 205.595C253.74 205.115 253.976 204.707 254.258 204.372C254.258 205.475 254.399 206.266 254.682 206.746C255.012 206.218 255.388 205.834 255.812 205.595C255.624 206.218 255.553 206.866 255.6 207.537C256.024 206.866 256.471 206.266 256.942 205.739C256.66 206.89 256.942 207.753 257.225 208.976C257.507 207.537 257.648 207.321 258.284 206.746C258.355 208.113 258.143 209.336 258.425 210.127C258.99 208.904 259.414 209.048 259.838 208.257C259.697 209.408 259.485 210.631 259.838 211.638C260.071 210.881 260.542 210.223 261.18 209.767C261.18 211.35 261.533 211.062 260.615 212.429C261.039 212.573 262.381 212.141 263.158 211.782C262.804 212.645 262.875 213.292 262.522 213.94C263.228 213.46 263.911 212.885 264.57 212.213C264.288 213.221 263.511 214.228 263.864 215.163C264.146 214.204 264.688 213.604 265.488 213.364C265.347 213.868 265.277 214.947 264.57 215.451C266.265 215.595 266.972 214.444 267.819 213.508C267.749 214.444 267.819 215.235 268.949 216.602C268.737 214.875 269.091 215.235 269.867 214.228C270.291 215.738 270.715 217.393 272.269 218.544C271.563 216.89 271.563 216.026 271.845 215.019C272.057 216.098 273.046 217.393 273.258 218.328C273.399 217.177 273.634 216.218 273.964 215.451C274.483 216.738 274.816 218.095 274.953 219.479C275.33 218.76 275.588 218.041 275.73 217.321C289.714 232.069 292.822 250.918 277.495 270.846C283.005 267.105 284.417 261.134 287.454 256.026C284.488 262.717 283.217 270.199 277.919 275.738C283.005 271.278 284.064 267.177 287.101 262.86C283.923 271.853 279.332 281.709 273.116 290.774L276.507 294.515L279.332 289.551C285.971 278.472 296.777 262.573 291.339 238.4H291.268Z" fill="#448127" stroke="#34541F" stroke-width="0.142566"/>
<path d="M251.221 195.091C250.515 195.235 250.232 195.523 249.667 196.098C250.327 196.242 250.939 196.314 251.504 196.314C251.645 196.218 251.716 196.074 251.716 195.882L251.574 195.163C251.574 195.019 251.151 195.091 251.009 195.163L251.221 195.091Z" fill="#EAC102" stroke="#A08307" stroke-width="0.142566"/>
<path d="M254.4 195.739C254.712 195.739 254.965 195.481 254.965 195.163C254.965 194.845 254.712 194.588 254.4 194.588C254.087 194.588 253.834 194.845 253.834 195.163C253.834 195.481 254.087 195.739 254.4 195.739Z" fill="black" stroke="black" stroke-width="0.071283"/>
<path d="M254.541 195.379C254.658 195.379 254.753 195.25 254.753 195.091C254.753 194.932 254.658 194.803 254.541 194.803C254.424 194.803 254.329 194.932 254.329 195.091C254.329 195.25 254.424 195.379 254.541 195.379Z" fill="url(#paint10_radial_24_2800)"/>
<path d="M261.816 320.558C263.094 316.246 264.847 312.095 267.042 308.184C268.612 305.199 270.285 302.272 272.057 299.407L273.893 296.529L272.128 299.407L267.184 308.256C265.118 312.201 263.324 316.287 261.816 320.486V320.558ZM248.467 313.723C256.716 310.062 263.929 304.348 269.444 297.105C266.662 299.791 264.021 302.624 261.533 305.594C257.618 308.979 253.21 311.721 248.467 313.723ZM274.812 292.644C275.377 291.877 275.895 291.086 276.365 290.27C277.882 287.888 279.296 285.44 280.603 282.932C281.545 281.254 282.44 279.575 283.287 277.896L285.9 272.86L284.7 275.378L283.428 277.968C281.716 281.334 279.903 284.645 277.99 287.896L274.812 292.644ZM278.979 274.587C281.404 271.669 283.424 268.425 284.982 264.947C287.273 259.704 288.704 254.114 289.22 248.4L289.149 251.278C288.552 256.037 287.167 260.659 285.053 264.947C283.458 268.421 281.415 271.663 278.979 274.587Z" fill="#34541F"/>
<path d="M277.849 270.414C280.319 267.74 282.39 264.71 283.993 261.422C285.175 258.969 286.213 256.446 287.101 253.868L287.313 253.22L287.525 252.573L287.949 251.278C288.666 247.625 288.714 243.869 288.09 240.199C288.134 242.054 288.299 243.905 288.584 245.738C288.584 247.657 288.42 249.503 288.09 251.278C287.902 251.757 287.76 252.213 287.666 252.645L287.454 253.292L287.172 253.94L284.064 261.566C283.285 263.213 282.388 264.8 281.38 266.314C280.352 267.829 279.168 269.227 277.849 270.486V270.414Z" fill="#34541F"/>
<path d="M273.681 291.421C274.576 290.27 275.424 289.071 276.224 287.824L277.496 286.026L278.696 284.227L280.815 280.342L282.652 276.386C283.923 273.748 285.1 271.038 286.183 268.256C288.293 262.78 289.556 257.004 289.926 251.134C290.53 245.264 289.904 239.33 288.09 233.724C290.093 239.286 290.771 245.253 290.068 251.134C289.693 257.027 288.431 262.826 286.324 268.328C285.241 271.062 284.064 273.748 282.793 276.386L280.815 280.342C280.203 281.685 279.52 282.98 278.767 284.227C278.39 284.899 277.99 285.522 277.566 286.098L276.295 287.896L273.752 291.493L273.681 291.421Z" fill="#34541F"/>
<path d="M275.659 293.652C278.982 288.116 282.138 282.478 285.124 276.745C289.435 268.009 291.546 258.318 291.268 248.544C291.268 245.283 290.986 242.069 290.421 238.904H290.491C291.104 242.117 291.386 245.331 291.339 248.544C291.321 255.033 290.466 261.491 288.796 267.753C287.867 270.868 286.686 273.9 285.265 276.817C282.255 282.526 279.075 288.14 275.73 293.652H275.659ZM256.024 199.048H257.013C258.02 199.206 258.996 199.521 259.909 199.983C262.267 201.264 264.412 202.914 266.265 204.875C264.387 202.982 262.245 201.382 259.909 200.127C258.674 199.57 257.365 199.207 256.024 199.048Z" fill="#34541F"/>
<path d="M267.607 206.818C267.607 206.818 269.726 208.113 270.927 209.983C270.927 209.983 267.607 209.336 265.277 206.674" fill="#448127"/>
<path d="M267.607 206.818C268.966 207.587 270.127 208.671 270.998 209.983L271.068 210.127H270.927C269.83 209.866 268.781 209.429 267.819 208.832C266.877 208.257 266.006 207.537 265.206 206.674C266.363 207.908 267.791 208.845 269.373 209.408L270.927 209.911V210.055C270.502 209.379 269.978 208.772 269.373 208.257L267.607 206.818Z" fill="#34541F"/>
<path d="M262.804 206.17C262.804 206.17 267.89 209.48 268.667 209.767C268.667 209.767 267.466 207.249 265.065 206.17" fill="#448127"/>
<path d="M262.804 206.17L265.7 207.969L267.89 209.264L268.596 209.695V209.767C268.217 208.994 267.716 208.289 267.113 207.681C266.516 207.067 265.824 206.556 265.065 206.17C265.869 206.479 266.594 206.971 267.184 207.609C267.793 208.239 268.294 208.969 268.667 209.767L268.808 209.911L268.596 209.839L267.113 208.976L262.804 206.17Z" fill="#34541F"/>
<path d="M264.853 204.516C264.853 204.516 267.466 205.667 268.102 207.609C268.102 207.609 263.299 205.595 262.451 204.516" fill="#448127"/>
<path d="M264.853 204.516C265.564 204.798 266.23 205.186 266.83 205.667L267.607 206.53L268.172 207.609V207.753H268.031C266.339 206.953 264.689 206.064 263.087 205.091L262.451 204.516L263.087 205.019L263.793 205.451C265.159 206.307 266.602 207.03 268.102 207.609H268.031C267.937 207.273 267.749 206.962 267.466 206.674L266.76 205.81C266.19 205.285 265.548 204.849 264.853 204.516Z" fill="#34541F"/>
<path d="M260.827 206.602C260.827 206.602 265.488 209.983 266.901 209.983C266.901 209.983 265.488 207.609 263.087 206.602" fill="#448127"/>
<path d="M260.827 206.602L266.053 209.695L266.901 209.911L266.83 210.055C266.392 209.304 265.844 208.625 265.206 208.041C264.569 207.463 263.855 206.979 263.087 206.602C264.296 207.092 265.364 207.884 266.195 208.904L266.901 209.983L267.042 210.055H266.901C266.571 210.055 266.265 209.983 265.983 209.839L265.277 209.48C263.691 208.695 262.198 207.729 260.827 206.602Z" fill="#34541F"/>
<path d="M260.827 207.609C260.827 207.609 263.228 209.767 264.641 209.767C264.641 209.767 263.228 207.393 260.827 206.314" fill="#448127"/>
<path d="M260.827 207.609L263.652 209.408L264.076 209.551L264.641 209.695L264.57 209.767C264.126 209.041 263.579 208.387 262.946 207.825C262.308 207.247 261.595 206.763 260.827 206.386C262.028 206.856 263.096 207.622 263.935 208.616L264.641 209.695L264.782 209.839H264.641L263.511 209.551C262.849 209.227 262.232 208.815 261.674 208.328L260.827 207.609Z" fill="#34541F"/>
<path d="M259.556 202.933C259.556 202.933 264.641 206.602 265.206 208.616C265.206 208.616 260.686 206.458 259.838 205.379" fill="#448127"/>
<path d="M259.556 202.933C261.467 204.339 263.241 205.929 264.853 207.681L265.347 208.544V208.76L265.206 208.688L260.403 205.882L261.109 206.314C262.455 207.163 263.873 207.885 265.347 208.472L265.206 208.616L264.711 207.753C263.683 206.412 262.497 205.204 261.18 204.156L259.556 202.933Z" fill="#34541F"/>
<path d="M231.304 306.601C226.864 308.974 221.907 310.162 216.895 310.054C223.958 304.155 230.809 304.011 231.304 306.601ZM280.603 309.839C284.276 313.22 295.436 315.594 297.201 315.162C289.715 307.465 281.592 306.673 280.603 309.839Z" fill="#406325" stroke="#24420E" stroke-width="0.142566"/>
<path d="M231.304 306.601C230.809 303.939 223.887 304.155 216.895 310.054C221.5 308.173 226.358 307.009 231.304 306.601ZM280.674 309.767C281.663 306.601 289.715 307.393 297.201 315.162C291.982 312.548 286.413 310.73 280.674 309.767Z" fill="#67923D" stroke="#24420E" stroke-width="0.142566"/>
</g>
<defs>
<radialGradient id="paint0_radial_24_2800" cx="0" cy="0" r="1" gradientUnits="userSpaceOnUse" gradientTransform="translate(232.999 261.997) scale(11.654 11.8704)">
<stop offset="0.2" stop-color="#F9F0AA"/>
<stop offset="1" stop-color="#B07E09"/>
</radialGradient>
<radialGradient id="paint1_radial_24_2800" cx="0" cy="0" r="1" gradientUnits="userSpaceOnUse" gradientTransform="translate(235.965 265.378) scale(7.69867 7.84166)">
<stop offset="0.2" stop-color="#F9F0AA"/>
<stop offset="1" stop-color="#B07E09"/>
</radialGradient>
<radialGradient id="paint2_radial_24_2800" cx="0" cy="0" r="1" gradientUnits="userSpaceOnUse" gradientTransform="translate(237.731 262.213) scale(6.92175 7.05032)">
<stop offset="0.2" stop-color="#F9F0AA"/>
<stop offset="1" stop-color="#B07E09"/>
</radialGradient>
<radialGradient id="paint3_radial_24_2800" cx="0" cy="0" r="1" gradientUnits="userSpaceOnUse" gradientTransform="translate(240.768 261.134) scale(12.2896 12.5179)">
<stop offset="0.2" stop-color="#F9F0AA"/>
<stop offset="1" stop-color="#B07E09"/>
</radialGradient>
<linearGradient id="paint4_linear_24_2800" x1="251.716" y1="226.674" x2="250.617" y2="207.108" gradientUnits="userSpaceOnUse">
<stop offset="0.2" stop-color="#B07E09" stop-opacity="0"/>
<stop offset="1" stop-color="#B07E09"/>
</linearGradient>
<linearGradient id="paint5_linear_24_2800" x1="258.214" y1="253.652" x2="259.972" y2="275.157" gradientUnits="userSpaceOnUse">
<stop offset="0.2" stop-color="#B07E09" stop-opacity="0"/>
<stop offset="1" stop-color="#B07E09"/>
</linearGradient>
<radialGradient id="paint6_radial_24_2800" cx="0" cy="0" r="1" gradientUnits="userSpaceOnUse" gradientTransform="translate(232.01 221.782) scale(9.18192 9.35246)">
<stop offset="0.2" stop-color="#F9F0AA"/>
<stop offset="1" stop-color="#B07E09"/>
</radialGradient>
<linearGradient id="paint7_linear_24_2800" x1="235.894" y1="219.695" x2="238.735" y2="213.331" gradientUnits="userSpaceOnUse">
<stop offset="0.2" stop-color="#F9F0AA"/>
<stop offset="1" stop-color="#B07E09"/>
</linearGradient>
<linearGradient id="paint8_linear_24_2800" x1="251.292" y1="210.846" x2="253.197" y2="234.726" gradientUnits="userSpaceOnUse">
<stop offset="0.2" stop-color="#F9F0AA"/>
<stop offset="1" stop-color="#B07E09"/>
</linearGradient>
<radialGradient id="paint9_radial_24_2800" cx="0" cy="0" r="1" gradientUnits="userSpaceOnUse" gradientTransform="translate(254.541 195.091) scale(0.21189 0.215826)">
<stop offset="0.3" stop-color="#A50A0A"/>
<stop offset="1" stop-color="#4C0505"/>
</radialGradient>
<radialGradient id="paint10_radial_24_2800" cx="0" cy="0" r="1" gradientUnits="userSpaceOnUse" gradientTransform="translate(254.53 195.043) scale(0.207033 0.22089)">
<stop stop-color="white"/>
<stop offset="1" stop-color="white" stop-opacity="0"/>
</radialGradient>
<clipPath id="clip0_24_2800">
<rect width="512" height="512" rx="256" fill="white"/>
</clipPath>
</defs>
</svg>
