<svg width="512" height="512" viewBox="0 0 512 512" fill="none" xmlns="http://www.w3.org/2000/svg">
<g clip-path="url(#clip0_24_3364)">
<path d="M0 0H512V512H0V0Z" fill="white"/>
<path d="M284 56.9H512V113.8H284V56.9ZM284 170.7H512V227.6H284V170.7ZM0 284.4H512V341.4H0V284.4ZM0 398.2H512V455.2H0V398.2Z" fill="#0038A8"/>
<path d="M135.942 170.047L145.329 184.127C106.531 212.287 129.997 228.557 102.776 237.318C119.672 221.048 99.96 219.484 114.353 184.753" fill="#FCD116"/>
<path d="M135.942 170.047L145.329 184.127C106.531 212.287 129.997 228.557 102.776 237.318C119.672 221.048 99.96 219.484 114.353 184.753" stroke="black" stroke-width="1.87733" stroke-miterlimit="20" stroke-linecap="square"/>
<path d="M129.059 174.115C107.782 209.158 121.549 228.557 102.776 237.631" stroke="black" stroke-width="1.87733" stroke-miterlimit="20"/>
<path d="M142.2 142.2H160.973L142.2 245.453L123.427 142.2H142.2V245.453Z" fill="#FCD116"/>
<path d="M142.2 142.2H160.973L142.2 245.453M142.2 142.2H123.427L142.2 245.453M142.2 142.2V245.453" stroke="black" stroke-width="1.87733" stroke-miterlimit="20"/>
<path d="M118.084 157.466L114.765 174.059C67.4188 166.537 72.5075 194.635 47.0642 181.582C70.5163 182.024 57.684 166.98 92.4196 152.599" fill="#FCD116"/>
<path d="M118.084 157.466L114.765 174.059C67.4188 166.537 72.5075 194.635 47.0642 181.582C70.5163 182.024 57.684 166.98 92.4196 152.599" stroke="black" stroke-width="1.87733" stroke-miterlimit="20" stroke-linecap="square"/>
<path d="M110.341 155.475C70.5163 165.21 66.5338 188.662 46.8429 181.803" stroke="black" stroke-width="1.87733" stroke-miterlimit="20"/>
<path d="M142.2 142.2L155.475 155.475L69.1888 215.211L128.925 128.925L142.2 142.2L69.1888 215.211Z" fill="#FCD116"/>
<path d="M142.2 142.2L155.475 155.475L69.1888 215.211M142.2 142.2L128.925 128.925L69.1888 215.211M142.2 142.2L69.1888 215.211" stroke="black" stroke-width="1.87733" stroke-miterlimit="20"/>
<path d="M114.353 135.942L100.273 145.329C72.1129 106.531 55.8427 129.997 47.0818 102.776C63.352 119.672 64.9164 99.96 99.6471 114.353" fill="#FCD116"/>
<path d="M114.353 135.942L100.273 145.329C72.1129 106.531 55.8427 129.997 47.0818 102.776C63.352 119.672 64.9164 99.96 99.6471 114.353" stroke="black" stroke-width="1.87733" stroke-miterlimit="20" stroke-linecap="square"/>
<path d="M110.285 129.059C75.2418 107.782 55.8427 121.549 46.7689 102.776" stroke="black" stroke-width="1.87733" stroke-miterlimit="20"/>
<path d="M142.2 142.2V160.973L38.9467 142.2L142.2 123.427V142.2H38.9467Z" fill="#FCD116"/>
<path d="M142.2 142.2V160.973L38.9467 142.2M142.2 142.2V123.427L38.9467 142.2M142.2 142.2H38.9467" stroke="black" stroke-width="1.87733" stroke-miterlimit="20"/>
<path d="M126.934 118.084L110.341 114.766C117.863 67.419 89.7647 72.5076 102.818 47.0643C102.376 70.5164 117.42 57.6841 131.801 92.4197" fill="#FCD116"/>
<path d="M126.934 118.084L110.341 114.766C117.863 67.419 89.7647 72.5076 102.818 47.0643C102.376 70.5164 117.42 57.6841 131.801 92.4197" stroke="black" stroke-width="1.87733" stroke-miterlimit="20" stroke-linecap="square"/>
<path d="M128.925 110.341C119.19 70.5164 95.7383 66.5339 102.597 46.8431" stroke="black" stroke-width="1.87733" stroke-miterlimit="20"/>
<path d="M142.2 142.2L128.925 155.475L69.1889 69.1889L155.475 128.925L142.2 142.2L69.1889 69.1889Z" fill="#FCD116"/>
<path d="M142.2 142.2L128.925 155.475L69.1889 69.1889M142.2 142.2L155.475 128.925L69.1889 69.1889M142.2 142.2L69.1889 69.1889" stroke="black" stroke-width="1.87733" stroke-miterlimit="20"/>
<path d="M148.458 114.353L139.071 100.273C177.869 72.1128 154.403 55.8426 181.624 47.0817C164.728 63.3519 184.44 64.9164 170.047 99.6471" fill="#FCD116"/>
<path d="M148.458 114.353L139.071 100.273C177.869 72.1128 154.403 55.8426 181.624 47.0817C164.728 63.3519 184.44 64.9164 170.047 99.6471" stroke="black" stroke-width="1.87733" stroke-miterlimit="20" stroke-linecap="square"/>
<path d="M155.341 110.285C176.618 75.2417 162.851 55.8426 181.624 46.7688" stroke="black" stroke-width="1.87733" stroke-miterlimit="20"/>
<path d="M142.2 142.2H123.427L142.2 38.9466L160.973 142.2H142.2V38.9466Z" fill="#FCD116"/>
<path d="M142.2 142.2H123.427L142.2 38.9466M142.2 142.2H160.973L142.2 38.9466M142.2 142.2V38.9466" stroke="black" stroke-width="1.87733" stroke-miterlimit="20"/>
<path d="M166.316 126.934L169.635 110.341C216.981 117.863 211.893 89.7647 237.336 102.818C213.884 102.376 226.716 117.42 191.98 131.801" fill="#FCD116"/>
<path d="M166.316 126.934L169.635 110.341C216.981 117.863 211.893 89.7647 237.336 102.818C213.884 102.376 226.716 117.42 191.98 131.801" stroke="black" stroke-width="1.87733" stroke-miterlimit="20" stroke-linecap="square"/>
<path d="M174.06 128.925C213.884 119.19 217.866 95.7383 237.557 102.597" stroke="black" stroke-width="1.87733" stroke-miterlimit="20"/>
<path d="M142.2 142.2L128.925 128.925L215.211 69.1888L155.475 155.475L142.2 142.2L215.211 69.1888Z" fill="#FCD116"/>
<path d="M142.2 142.2L128.925 128.925L215.211 69.1888M142.2 142.2L155.475 155.475L215.211 69.1888M142.2 142.2L215.211 69.1888" stroke="black" stroke-width="1.87733" stroke-miterlimit="20"/>
<path d="M170.047 148.458L184.127 139.071C212.287 177.869 228.557 154.403 237.318 181.624C221.048 164.728 219.484 184.44 184.753 170.047" fill="#FCD116"/>
<path d="M170.047 148.458L184.127 139.071C212.287 177.869 228.557 154.403 237.318 181.624C221.048 164.728 219.484 184.44 184.753 170.047" stroke="black" stroke-width="1.87733" stroke-miterlimit="20" stroke-linecap="square"/>
<path d="M174.115 155.341C209.158 176.618 228.557 162.851 237.631 181.624" stroke="black" stroke-width="1.87733" stroke-miterlimit="20"/>
<path d="M142.2 142.2V123.427L245.453 142.2L142.2 160.973V142.2H245.453Z" fill="#FCD116"/>
<path d="M142.2 142.2V123.427L245.453 142.2M142.2 142.2V160.973L245.453 142.2M142.2 142.2H245.453" stroke="black" stroke-width="1.87733" stroke-miterlimit="20"/>
<path d="M157.466 166.316L174.059 169.635C166.537 216.981 194.635 211.892 181.582 237.336C182.024 213.884 166.98 226.716 152.599 191.98" fill="#FCD116"/>
<path d="M157.466 166.316L174.059 169.635C166.537 216.981 194.635 211.892 181.582 237.336C182.024 213.884 166.98 226.716 152.599 191.98" stroke="black" stroke-width="1.87733" stroke-miterlimit="20" stroke-linecap="square"/>
<path d="M155.475 174.059C165.21 213.884 188.662 217.866 181.803 237.557" stroke="black" stroke-width="1.87733" stroke-miterlimit="20"/>
<path d="M142.2 142.2L155.475 128.925L215.211 215.211L128.925 155.475L142.2 142.2L215.211 215.211Z" fill="#FCD116"/>
<path d="M142.2 142.2L155.475 128.925L215.211 215.211M142.2 142.2L128.925 155.475L215.211 215.211M142.2 142.2L215.211 215.211" stroke="black" stroke-width="1.87733" stroke-miterlimit="20"/>
<path d="M142.2 176.618C161.208 176.618 176.618 161.208 176.618 142.2C176.618 123.192 161.208 107.782 142.2 107.782C123.192 107.782 107.782 123.192 107.782 142.2C107.782 161.208 123.192 176.618 142.2 176.618Z" fill="#FCD116" stroke="black" stroke-width="1.87733" stroke-miterlimit="20"/>
<path d="M167.544 128.433C165.354 130.936 164.102 126.556 156.28 126.556C148.458 126.556 147.206 131.249 145.955 130.31C144.703 129.372 152.525 123.739 155.029 123.427C157.532 123.114 164.728 125.617 167.544 128.433ZM158.47 131.249C160.661 133.126 158.783 137.194 156.593 137.194C154.403 137.194 150.335 133.439 152.212 130.936" fill="black"/>
<path d="M148.145 134.065C148.458 130.31 151.587 129.684 156.593 129.684C161.599 129.684 163.79 133.439 165.667 134.378C163.477 134.378 161.599 131.249 156.593 131.249C151.587 131.249 151.587 131.249 148.145 134.378M149.084 135.004C150.335 133.126 151.9 136.881 155.341 136.881C158.783 136.881 160.661 135.942 162.851 134.378C165.041 132.813 159.722 138.132 156.28 138.132C152.838 138.132 148.145 136.255 149.084 135.004Z" fill="black"/>
<path d="M159.722 136.881C163.789 134.691 161.286 131.562 159.722 130.936C160.348 131.562 162.851 134.691 159.722 136.881ZM142.2 155.654C144.077 155.654 144.703 155.029 147.206 155.029C149.709 155.029 155.654 158.47 159.096 157.219C151.9 160.035 154.716 158.157 142.2 158.157H140.636M160.348 160.035C159.096 157.845 159.409 158.47 156.906 155.029C159.409 156.906 160.035 157.845 160.348 160.035ZM142.2 163.164C150.022 163.164 148.771 161.599 159.096 157.219C151.587 158.157 150.022 160.661 142.2 160.661H140.636M142.2 151.587C144.39 151.587 145.016 150.022 147.519 150.022C150.022 150.022 153.464 150.961 155.029 152.212C155.341 152.525 154.09 149.709 151.587 149.396C149.084 149.084 150.022 145.016 147.206 144.39C147.206 145.642 148.145 145.329 148.458 147.206C148.458 148.771 145.642 148.771 145.016 147.206C145.642 149.709 143.765 149.709 142.2 149.709" fill="black"/>
<path d="M116.856 128.433C119.046 130.936 120.298 126.556 128.12 126.556C135.942 126.556 137.194 131.249 138.445 130.31C139.697 129.372 131.875 123.739 129.372 123.427C126.869 123.114 119.672 125.617 116.856 128.433ZM125.93 131.249C123.74 133.126 125.617 137.194 127.807 137.194C129.997 137.194 134.065 133.439 132.188 130.936" fill="black"/>
<path d="M136.255 134.065C135.942 130.31 132.813 129.684 127.807 129.684C122.801 129.684 120.611 133.439 118.733 134.378C120.924 134.378 122.801 131.249 127.807 131.249C132.813 131.249 132.813 131.249 136.255 134.378M135.316 135.004C134.065 133.126 132.5 136.881 129.059 136.881C125.617 136.881 123.74 135.942 121.549 134.378C119.359 132.813 124.678 138.132 128.12 138.132C131.562 138.132 136.255 136.255 135.316 135.004Z" fill="black"/>
<path d="M124.678 136.881C120.611 134.691 123.114 131.562 124.678 130.936C124.052 131.562 121.549 134.691 124.678 136.881ZM142.2 155.654C140.323 155.654 139.697 155.029 137.194 155.029C134.691 155.029 128.746 158.47 125.304 157.219C132.5 160.035 129.684 158.157 142.2 158.157H143.765M124.052 160.035C125.304 157.845 124.991 158.47 127.494 155.029C124.991 156.906 124.365 157.845 124.052 160.035ZM142.2 163.164C134.378 163.164 135.629 161.599 125.304 157.219C132.813 158.157 134.378 160.661 142.2 160.661H143.765M142.2 151.587C140.01 151.587 139.384 150.022 136.881 150.022C134.378 150.022 130.936 150.961 129.372 152.212C129.059 152.525 130.31 149.709 132.813 149.396C135.316 149.084 134.378 145.016 137.194 144.39C137.194 145.642 136.255 145.329 135.942 147.206C135.942 148.771 138.758 148.771 139.384 147.206C138.758 149.709 140.636 149.709 142.2 149.709" fill="black"/>
<path d="M142.2 165.98C140.636 165.98 136.568 166.918 142.2 166.918C147.832 166.918 143.765 165.98 142.2 165.98Z" fill="black"/>
</g>
<defs>
<clipPath id="clip0_24_3364">
<rect width="512" height="512" rx="256" fill="white"/>
</clipPath>
</defs>
</svg>
